SplineFontDB: 3.0
FontName: SerreriaSobria
FullName: Serreria Sobria
FamilyName: Serreria Sobria
Weight: Medium
Copyright: 2012 (c) The participants of the "Stone to Spaceship" workshop at Medialab Prado in July 2012. \n\nSee the FONTLOG for the full author list and visit http://manufacturaindependente.com/stonespaceship/ for additional information.
FontLog: "2012/07/19: First release by the authors (Javier Gonzalez, Eduardo Merch+AOEA-n, Guillermo Afonso, Beatriz Garc+AO0A-a, Alberto Hern+AOEA-ndez, Marta Calabria, Txus Tejado, Beatriz Fern+AOEA-ndez, Marcos Prack, Pablo G+AOEA-mez, Miriam Castro, C+AOkA-sar A. Fern+AOEA-ndez, Gabriel Lucas, Alfredo Calosci, Rafael Parrilla, Ana Carvalho, Ricardo Lafuente)+AAoACgAA-2012/07/20: Missing accents and misc. characters added by Manufactura Independente from original drawings." 
Version: 001.000
ItalicAngle: 0
UnderlinePosition: -100
UnderlineWidth: 50
Ascent: 800
Descent: 200
sfntRevision: 0x00010000
LayerCount: 2
Layer: 0 0 "Back"  1
Layer: 1 0 "Fore"  0
XUID: [1021 880 1058947518 2350027]
FSType: 0
OS2Version: 4
OS2_WeightWidthSlopeOnly: 0
OS2_UseTypoMetrics: 1
CreationTime: 1342706206
ModificationTime: 1342794427
PfmFamily: 17
TTFWeight: 500
TTFWidth: 5
LineGap: 90
VLineGap: 0
Panose: 2 0 6 3 0 0 0 0 0 0
OS2TypoAscent: 0
OS2TypoAOffset: 1
OS2TypoDescent: 0
OS2TypoDOffset: 1
OS2TypoLinegap: 90
OS2WinAscent: 0
OS2WinAOffset: 1
OS2WinDescent: 0
OS2WinDOffset: 1
HheadAscent: 0
HheadAOffset: 1
HheadDescent: 0
HheadDOffset: 1
OS2SubXSize: 650
OS2SubYSize: 699
OS2SubXOff: 0
OS2SubYOff: 140
OS2SupXSize: 650
OS2SupYSize: 699
OS2SupXOff: 0
OS2SupYOff: 479
OS2StrikeYSize: 49
OS2StrikeYPos: 258
OS2Vendor: 'PfEd'
OS2CodePages: 00000001.00000000
OS2UnicodeRanges: 00000003.00000000.00000000.00000000
MarkAttachClasses: 1
DEI: 91125

StartChar: .notdef
Encoding: 65536 -1 0
Width: 500
Flags: MW
HStem: 0 50<100 400 100 450> 483 50<100 400 100 100>
VStem: 50 50<50 50 50 483> 400 50<50 483 483 483>
LayerCount: 2
Fore
SplineSet
50 0 m 1
 50 533 l 1
 450 533 l 1
 450 0 l 1
 50 0 l 1
100 50 m 1
 400 50 l 1
 400 483 l 1
 100 483 l 1
 100 50 l 1
EndSplineSet
Validated: 1
EndChar

StartChar: exclam
Encoding: 33 33 2
Width: 221
GlyphClass: 2
Flags: MW
HStem: -43.5 92
VStem: 38.9999 142.844 64.6879 92.031 76.2499 69.25
LayerCount: 2
Fore
SplineSet
39 856.062 m 1xc0
 76.25 99.6582 l 1
 145.5 99.6582 l 1x90
 181.844 855.596 l 1
 39 856.062 l 1xc0
110.719 48.502 m 0
 85.3105 48.502 64.6875 27.9092 64.6875 2.50195 c 0
 64.6875 -22.9053 85.3105 -43.498 110.719 -43.498 c 0
 136.126 -43.498 156.719 -22.9053 156.719 2.50195 c 0xa0
 156.719 27.9092 136.126 48.502 110.719 48.502 c 0
EndSplineSet
Validated: 524297
EndChar

StartChar: quotedbl
Encoding: 34 34 3
Width: 328
GlyphClass: 2
Flags: MW
HStem: 603 197<30 132.156 30 132.156 30 195.406 195.406 297.562>
VStem: 30 102.156 195.406 102.156
LayerCount: 2
Fore
SplineSet
30 800 m 1
 132.156 800 l 1
 132.156 603 l 1
 30 603 l 1
 30 800 l 1
195.406 800 m 1
 297.562 800 l 1
 297.562 603 l 1
 195.406 603 l 1
 195.406 800 l 1
EndSplineSet
Validated: 524289
EndChar

StartChar: numbersign
Encoding: 35 35 4
Width: 777
GlyphClass: 2
Flags: MW
HStem: 0 21G<151 251.313 151 151 451 551.312 451 451> 200 100<26 166.781 26 174.656 274.969 466.781 26 267.095 574.97 726.001> 500 100<51 190.469 51 198.344 298.656 490.469 51 290.781 598.656 751> 780 20G<214.125 314.438 314.438 314.438 514.125 614.438 614.438 614.438> 780 20G<214.125 314.438 314.438 314.438 514.125 614.438 614.438 614.438>
LayerCount: 2
Fore
SplineSet
214.125 800 m 1xf0
 314.438 800 l 1
 298.656 600 l 1
 498.344 600 l 1
 514.125 800 l 1
 614.438 800 l 1
 598.656 600 l 1
 751 600 l 1
 751 500 l 1
 590.781 500 l 1
 574.97 300 l 1
 726.001 300 l 1
 726.001 200 l 1
 567.095 200 l 1
 551.312 0 l 1
 451 0 l 1
 466.781 200 l 1
 267.095 200 l 1
 251.313 0 l 1
 151 0 l 1
 166.781 200 l 1
 26 200 l 1
 26 300 l 1
 174.656 300 l 1
 190.469 500 l 1
 51 500 l 1
 51 600 l 1
 198.344 600 l 1
 214.125 800 l 1xf0
290.781 500 m 1
 274.969 300 l 1
 474.656 300 l 1
 490.469 500 l 1
 290.781 500 l 1
EndSplineSet
Validated: 524289
EndChar

StartChar: dollar
Encoding: 36 36 5
Width: 1000
GlyphClass: 2
Flags: MW
HStem: -30 100<485.6 496.932> 345 100 720 100
VStem: 162.531 100 396.031 80 542.031 80 737.531 100
CounterMasks: 1 e0
LayerCount: 2
Fore
SplineSet
396.031 895 m 1
 476.033 895 l 1
 476.033 819.812 l 1
 480.186 819.931 484.349 820.001 488.533 820.001 c 0
 507.128 820.001 524.951 819.267 542.033 817.812 c 1
 542.033 895 l 1
 622.033 895 l 1
 622.033 804.594 l 1
 677.305 790.402 721.869 766.882 756.033 736.03 c 0
 783.172 711.523 802.896 682.904 816.252 652.594 c 1
 718.846 624.969 l 1
 711.362 638.14 701.54 650.518 689.032 661.812 c 0
 653.367 694.02 592.01 720 488.532 720 c 0
 422.916 720 363.591 700.079 323.188 670.906 c 0
 282.785 641.734 262.531 606.367 262.531 570 c 0
 262.531 520.833 275.135 499.973 312.031 479.219 c 0
 348.929 458.465 416.698 445 512.531 445 c 1
 512.531 444.75 l 1
 604.95 442.949 679.067 430.574 737.031 397.969 c 0
 800.135 362.473 837.531 295.833 837.531 220 c 0
 837.531 148.672 800.861 81.8623 739.031 37.8438 c 0
 706.366 14.5879 667.15 -3.02148 622.031 -14.4688 c 1
 622.031 -81 l 1
 542.031 -81 l 1
 542.031 -27.6875 l 1
 524.493 -29.2119 506.333 -30 487.531 -30 c 0
 483.669 -30 479.843 -29.9336 476.031 -29.8438 c 1
 476.031 -81 l 1
 396.031 -81 l 1
 396.031 -21.2812 l 1
 282.978 1.11133 200.587 64.4131 162.001 142.344 c 1
 260.251 170.25 l 1
 294.344 116.014 367.833 70 487.532 70 c 0
 576.462 70 641.187 90.9453 681.031 119.312 c 0
 720.877 147.68 737.531 180.871 737.531 220 c 0
 737.531 269.167 724.928 290.058 688.031 310.812 c 0
 651.135 331.566 583.365 344.999 487.531 344.999 c 1
 487.531 345.249 l 1
 395.113 347.055 320.996 359.456 263.031 392.062 c 0
 199.929 427.558 162.531 494.167 162.531 570 c 0
 162.531 644.09 204.777 708.755 264.625 751.969 c 0
 302.054 778.995 346.839 798.841 396.031 809.906 c 1
 396.031 895 l 1
EndSplineSet
Validated: 524289
EndChar

StartChar: percent
Encoding: 37 37 6
Width: 566
GlyphClass: 2
Flags: MW
HStem: 349.969 100
VStem: 79 100<386.161 413.776> 379 100<386.161 413.776>
LayerCount: 2
Fore
SplineSet
426.344 799.969 m 1
 327.656 601.156 l 1
 327.469 601.219 l 1
 29 0 l 1
 140.656 0 l 1
 324.156 369.625 l 1
 324.312 369.562 l 1
 538 799.969 l 1
 426.344 799.969 l 1
129 449.969 m 0
 101.386 449.969 79 427.583 79 399.969 c 0
 79 372.354 101.386 349.969 129 349.969 c 0
 156.614 349.969 179 372.354 179 399.969 c 0
 179 427.583 156.614 449.969 129 449.969 c 0
429 449.969 m 0
 401.386 449.969 379 427.583 379 399.969 c 0
 379 372.354 401.386 349.969 429 349.969 c 0
 456.614 349.969 479 372.354 479 399.969 c 0
 479 427.583 456.614 449.969 429 449.969 c 0
EndSplineSet
Validated: 524297
EndChar

StartChar: ampersand
Encoding: 38 38 7
Width: 748
GlyphClass: 2
Flags: MW
HStem: 446.497 100 735.997 100.003
VStem: 26 100 530.469 100
LayerCount: 2
Fore
SplineSet
298.719 835.997 m 0
 345.717 835.997 391.179 819.085 426.73 788.347 c 0
 452.535 766.036 471.865 737.479 483.136 705.723 c 1
 393.793 654.159 l 1
 393.448 654.094 l 1
 390.23 676.139 378.176 698.117 361.324 712.688 c 0
 344.472 727.26 320.979 736.001 298.699 736.001 c 0
 276.421 736.001 252.895 727.26 236.043 712.688 c 0
 219.19 698.117 207.137 676.139 203.919 654.094 c 0
 199.783 625.767 210.646 592.931 230.856 572.655 c 0
 251.067 552.381 283.892 541.422 312.231 545.468 c 1
 312.281 545.248 l 1
 319.586 546.134 323.812 546.403 323.812 546.403 c 1
 325.405 546.498 l 1
 326.999 546.498 l 1
 426.999 546.498 l 1
 530.343 546.498 l 1
 528.999 647.842 l 1
 628.999 649.186 l 1
 630.374 546.498 l 1
 726.999 546.498 l 1
 726.999 446.498 l 1
 630.468 446.498 l 1
 626.999 99.998 l 1
 626.749 75.1543 l 1
 606.78 60.3418 l 2
 476.362 -36.4199 339.927 -30.5547 323.562 -29.4707 c 0
 314.601 -29.7705 249.954 -30.9375 180.687 -1.0332 c 0
 106.265 31.0967 26 110.339 26 245.498 c 0
 26 373.371 96.166 454.844 165.906 496.403 c 1
 163.923 498.233 161.976 500.108 160.062 502.028 c 0
 116.554 545.673 96.0977 607.549 105 668.527 c 0
 111.789 715.032 135.104 757.602 170.656 788.341 c 0
 206.208 819.079 251.721 835.997 298.719 835.997 c 0
329.124 446.5 m 2
 326.162 446.263 275.465 441.86 224.968 415.003 c 0
 172.957 387.34 125.999 345.201 125.999 245.503 c 0
 125.999 145.662 170.234 112.403 220.312 90.7842 c 0
 270.39 69.1641 323 70.4717 323 70.4717 c 1
 326.344 70.5967 l 1
 329.655 70.2812 l 1
 329.655 70.2812 425.257 61 527.249 126.875 c 1
 530.468 446.5 l 1
 426.999 446.5 l 1
 329.124 446.5 l 2
EndSplineSet
Validated: 524321
EndChar

StartChar: quotesingle
Encoding: 39 39 8
Width: 260
GlyphClass: 2
Flags: MW
HStem: 599.469 1.75 780 20G<122.75 234.406 234.406 234.406> 780 20G<122.75 234.406 234.406 234.406>
VStem: 23 211.406
LayerCount: 2
Fore
SplineSet
122.75 800 m 1xd0
 234.406 800 l 1
 134.844 599.469 l 1
 23 599.469 l 1
 23.875 601.219 l 1
 24.0625 601.188 l 1
 122.75 800 l 1xd0
EndSplineSet
Validated: 524289
EndChar

StartChar: parenleft
Encoding: 40 40 9
Width: 255
GlyphClass: 2
Flags: MW
HStem: 0.00050354 100 700.001 100<222.213 234.02>
VStem: 33.9998 100.02
LayerCount: 2
Fore
SplineSet
234.02 800.001 m 1
 182.63 800.001 137.68 775.517 109.082 741.623 c 0
 80.4844 707.729 64.7539 666.562 54.2695 624.622 c 0
 36.4258 553.247 34.292 476.981 34.0508 424.998 c 1
 34 424.998 l 1
 34 374.997 l 1
 34.0508 374.997 l 1
 34.291 323.014 36.4258 246.748 54.2695 175.373 c 0
 64.7539 133.434 80.4844 92.2666 109.082 58.373 c 0
 137.68 24.4785 182.63 -0.00292969 234.02 -0.00292969 c 1
 234.02 99.998 l 1
 210.406 99.998 199.107 106.767 185.52 122.873 c 0
 171.93 138.979 159.532 166.562 151.27 199.625 c 0
 137.243 255.722 134.622 324.791 134.145 374.999 c 1
 134.02 374.999 l 1
 134.02 425 l 1
 134.145 425 l 1
 134.623 475.209 137.243 544.277 151.27 600.375 c 0
 159.532 633.438 171.93 661.02 185.52 677.125 c 0
 199.107 693.232 210.406 700.001 234.02 700.001 c 1
 234.02 800.001 l 1
EndSplineSet
Validated: 524297
EndChar

StartChar: parenright
Encoding: 41 41 10
Width: 255
GlyphClass: 2
Flags: MW
HStem: 0.00050354 100 700.001 100<21 32.8057>
VStem: 121 100.018
LayerCount: 2
Fore
SplineSet
21 800.001 m 1
 72.3887 800.001 117.339 775.517 145.937 741.623 c 0
 174.533 707.729 190.265 666.562 200.75 624.622 c 0
 218.593 553.247 220.727 476.981 220.968 424.998 c 1
 221.018 424.998 l 1
 221.018 374.997 l 1
 220.968 374.997 l 1
 220.728 323.014 218.593 246.748 200.75 175.373 c 0
 190.265 133.434 174.533 92.2666 145.937 58.373 c 0
 117.339 24.4785 72.3887 -0.00292969 21 -0.00292969 c 1
 21 99.998 l 1
 44.6113 99.998 55.9102 106.767 69.5 122.873 c 0
 83.0889 138.979 95.4834 166.562 103.749 199.625 c 0
 117.773 255.722 120.396 324.791 120.876 374.999 c 1
 121.001 374.999 l 1
 121.001 425 l 1
 120.876 425 l 1
 120.396 475.209 117.773 544.277 103.749 600.375 c 0
 95.4834 633.438 83.0889 661.02 69.5 677.125 c 0
 55.9102 693.232 44.6113 700.001 21 700.001 c 1
 21 800.001 l 1
EndSplineSet
Validated: 524289
EndChar

StartChar: asterisk
Encoding: 42 42 11
Width: 598
GlyphClass: 2
Flags: MW
VStem: 233.869 129.4
LayerCount: 2
Fore
SplineSet
233.869 942.586 m 1
 363.267 941.879 l 1
 362.56 798.336 l 1
 493.375 888.846 l 1
 559.136 789.851 l 1
 399.33 685.904 l 1
 530.146 547.312 l 1
 435.394 455.465 l 1
 296.094 596.811 l 1
 148.309 455.465 l 1
 46.4854 540.95 l 1
 194.978 687.321 l 1
 39 791.336 l 1
 112.954 892.382 l 1
 237.112 798.336 l 1
 233.869 942.586 l 1
EndSplineSet
Validated: 524289
EndChar

StartChar: plus
Encoding: 43 43 12
Width: 578
GlyphClass: 2
Flags: W
LayerCount: 2
Fore
SplineSet
240.344 649.406 m 1
 240.344 450.625 l 1
 39 450.625 l 1
 39 348.469 l 1
 240.344 348.469 l 1
 240.344 152.281 l 1
 339.938 152.281 l 1
 339.938 348.469 l 1
 538.688 348.469 l 1
 538.688 450.625 l 1
 339.938 450.625 l 1
 339.938 649.406 l 1
 240.344 649.406 l 1
EndSplineSet
Validated: 524297
EndChar

StartChar: comma
Encoding: 44 44 13
Width: 152
GlyphClass: 2
Flags: MW
HStem: -18.1562 102.156
VStem: 23 102.157
LayerCount: 2
Fore
SplineSet
74.0635 84 m 0
 102.278 84 125.157 61.1211 125.157 32.9062 c 0
 125.157 32.5078 125.134 32.1152 125.125 31.7188 c 1
 125.21 31.7607 125.29 31.8018 125.375 31.8438 c 2
 125.875 33.8438 l 1
 121.802 -44.0615 103.558 -80.0645 34.375 -86.6562 c 1
 77.4717 -66.9248 84.21 -39.6846 91.4688 -15.125 c 1
 86.0439 -17.0879 80.165 -18.1562 74.0635 -18.1562 c 0
 45.8467 -18.1562 23 4.69043 23 32.9062 c 0
 23 61.1211 45.8467 84 74.0635 84 c 0
EndSplineSet
Validated: 524289
EndChar

StartChar: hyphen
Encoding: 45 45 14
Width: 578
GlyphClass: 2
Flags: MW
HStem: 307.842 102.158
LayerCount: 2
Fore
SplineSet
39 307.842 m 1
 39 410 l 1
 538.699 410 l 1
 538.699 307.842 l 1
 39 307.842 l 1
EndSplineSet
Validated: 524289
EndChar

StartChar: period
Encoding: 46 46 15
Width: 148
GlyphClass: 2
Flags: MW
HStem: -43.5 92<61.3271 86.7349>
VStem: 28.0004 92.031
LayerCount: 2
Fore
SplineSet
74.0312 48.5 m 0
 48.623 48.5 28 27.9072 28 2.5 c 0
 28 -22.9072 48.623 -43.5 74.0312 -43.5 c 0
 99.4385 -43.5 120.031 -22.9072 120.031 2.5 c 0
 120.031 27.9072 99.4385 48.5 74.0312 48.5 c 0
EndSplineSet
Validated: 524297
EndChar

StartChar: slash
Encoding: 47 47 16
Width: 517
GlyphClass: 2
Flags: MW
HStem: 0.0185547 21G 780 20G<401.346 401.346> 780 20G<401.346 401.346>
LayerCount: 2
Fore
SplineSet
401.346 800 m 1xc0
 512.998 799.999 l 1
 299.312 369.593 l 1
 299.156 369.643 l 1
 115.656 0.0175781 l 1
 3.99902 0.0175781 l 1
 302.468 601.236 l 1
 302.658 601.188 l 1
 401.346 800 l 1xc0
EndSplineSet
Validated: 524289
EndChar

StartChar: zero
Encoding: 48 48 17
Width: 920
GlyphClass: 2
Flags: MW
HStem: -20 100<369.978 550.023 369.978 577.36> 730 100<369.978 550.023>
VStem: 35 99<315.254 494.747 315.254 522.36> 786 99<315.254 494.747>
LayerCount: 2
Fore
SplineSet
460 830 m 0
 694.721 830 885 639.721 885 405 c 0
 885 170.278 694.721 -20 460 -20 c 0
 225.279 -20 35 170.278 35 405 c 0
 35 639.721 225.279 830 460 830 c 0
460 730 m 0
 279.955 730 134 584.493 134 405 c 0
 134 225.508 279.955 80 460 80 c 0
 640.046 80 786 225.508 786 405 c 0
 786 584.493 640.046 730 460 730 c 0
EndSplineSet
Validated: 524289
EndChar

StartChar: one
Encoding: 49 49 18
Width: 256
GlyphClass: 2
Flags: MW
HStem: -0.938477 21G 780 20G<213 213> 780 20G<213 213>
VStem: 113 100<-0.9375 553.188 553.188 553.188 788.156 798.156 798.156 799.062 -0.9375 799.062>
LayerCount: 2
Fore
SplineSet
213 800 m 2xd0
 213.01 799.686 213 799.375 213 799.062 c 0
 213.06 795.279 213.06 791.51 213 787.751 c 2
 213 -0.9375 l 1
 113 -0.9375 l 1
 113 553.188 l 1
 84.5 526.225 50.7715 505.005 13 491.344 c 1
 13 599.344 l 1
 74.5713 634.48 111.742 703.416 113 788.156 c 1
 113 798.156 l 1
 113 799.062 l 1
 162.156 799.062 l 1
 213 800 l 2xd0
EndSplineSet
Validated: 524289
EndChar

StartChar: two
Encoding: 50 50 19
Width: 719
GlyphClass: 2
Flags: MW
HStem: -0.00976562 100 699.771 100.218
VStem: 29 99.0625 578.562 99.9375
LayerCount: 2
Fore
SplineSet
336.25 799.986 m 0
 338.323 799.996 340.403 800.012 342.5 799.991 c 0
 346.693 799.956 350.933 799.855 355.22 799.71 c 0
 587.941 791.854 675.271 667.231 678.5 576.523 c 0
 679.8 540.011 675.479 493.535 648.344 448.805 c 0
 621.377 404.352 574.394 364.413 500.905 330.054 c 1
 500.905 330.023 l 1
 496.798 327.963 491.522 325.666 488.218 323.211 c 1
 474.266 317.42 473.732 317.036 435.687 299.993 c 1
 381.729 274.245 316.061 237.716 260.373 197.43 c 0
 222.545 170.064 189.273 140.787 167.247 113.929 c 0
 163.332 109.155 159.86 104.495 156.747 99.9912 c 1
 661.247 99.9912 l 1
 661.247 -0.00878906 l 1
 61.2471 -0.00878906 l 1
 61.2471 0.397461 l 1
 36.2471 -0.00878906 l 1
 36.2471 49.9912 l 2
 36.2471 98.4668 59.5732 140.353 89.9033 177.334 c 0
 120.233 214.316 159.382 247.788 201.779 278.459 c 0
 283.306 337.438 376.645 385.466 443.187 412.866 c 0
 447.401 415.062 451.723 417.243 456.154 419.459 c 2
 456.811 419.771 l 1
 457.468 420.084 l 2
 519.756 449.019 548.555 477.125 562.843 500.678 c 0
 577.131 524.231 579.52 546.04 578.561 572.957 c 0
 577.273 609.113 553.176 692.975 351.843 699.771 c 0
 239.186 703.573 189.155 667.339 160.654 633.302 c 0
 132.153 599.266 128.061 567.957 128.061 567.957 c 1
 28.999 581.521 l 1
 28.999 581.521 37.4639 641.917 83.999 697.49 c 0
 127.625 749.59 207.23 797.908 330.062 799.928 c 0
 332.108 799.957 334.177 799.978 336.25 799.986 c 0
EndSplineSet
Validated: 524321
EndChar

StartChar: three
Encoding: 51 51 20
Width: 601
GlyphClass: 2
Flags: MW
HStem: -25 100<194.971 309.773 194.971 329.525> 700 100<23 350.312 23 522.999 23 522.999>
VStem: 473 100
LayerCount: 2
Fore
SplineSet
23 800 m 1
 522.999 800 l 1
 522.999 700 l 1
 284.499 521.125 l 1
 462.036 498.422 572.999 378.406 572.999 250 c 0
 572.999 107.343 436.051 -25 222.999 -25 c 0
 151.026 -25 87.7559 -9.87695 35.499 15.625 c 1
 84.5303 101.406 l 1
 121.022 85.1025 166.943 75 222.999 75 c 0
 396.547 75 472.999 171.743 472.999 250 c 0
 472.999 328.257 396.547 425 222.999 425 c 0
 200.858 425 180.301 423.417 161.281 420.5 c 1
 107.625 514.406 l 1
 350.312 700 l 1
 23 700 l 1
 23 800 l 1
EndSplineSet
Validated: 524289
EndChar

StartChar: four
Encoding: 52 52 21
Width: 535
GlyphClass: 2
Flags: MW
HStem: 0 21G<413 513 413 413> 200 100<139.718 413 13 13> 780 20G<402.218 528.968 528.968 528.968> 780 20G<402.218 528.968 528.968 528.968>
VStem: 413 100<0 200 200 200 300 400 0 400>
LayerCount: 2
Fore
SplineSet
402.218 800 m 1xe8
 528.968 800 l 1
 139.718 300 l 1
 413 300 l 1
 413 400 l 1
 513 400 l 1
 513 0 l 1
 413 0 l 1
 413 200 l 1
 13 200 l 1
 13 300 l 1
 402.218 800 l 1xe8
EndSplineSet
Validated: 524289
EndChar

StartChar: five
Encoding: 53 53 22
Width: 661
GlyphClass: 2
Flags: MW
HStem: -25 100 425 100 700 100<70.0312 82.5312>
VStem: 532.938 100
LayerCount: 2
Fore
SplineSet
82.5312 800 m 1
 133.06 799.999 l 1
 529.81 799.999 l 1
 517.31 699.999 l 1
 170.841 699.999 l 1
 146.435 504.749 l 1
 187.231 517.723 232.988 524.999 282.935 524.999 c 0
 495.986 524.999 632.936 392.656 632.936 249.999 c 0
 632.936 107.342 495.986 -25.001 282.936 -25.001 c 0
 200.593 -25.001 129.623 -5.21191 73.5293 27.2803 c 1
 122.311 112.688 l 1
 161.751 89.877 214.871 75 282.938 75 c 0
 456.484 75 532.938 171.743 532.938 250 c 0
 532.938 328.257 456.484 425 282.937 425 c 0
 193.609 425 130.008 399.36 89.3115 363.812 c 1
 39 451.875 l 1
 70.0312 700 l 1
 82.5312 800 l 1
EndSplineSet
Validated: 524289
EndChar

StartChar: six
Encoding: 54 54 23
Width: 766
GlyphClass: 2
Flags: MW
HStem: -5 99.998 444.998 100.002 720 99.998
VStem: 35.5 100 635.5 100
LayerCount: 2
Fore
SplineSet
360.5 819.998 m 0
 503.275 819.998 598.559 759.21 665.096 710.312 c 1
 605.908 629.719 l 1
 543.216 675.789 476.184 720 360.501 720 c 0
 281.533 720 231.123 681.271 193.001 618.781 c 0
 167.137 576.386 149.912 523.006 141.501 469.657 c 1
 201.725 515.62 285.16 545.001 385.5 545.001 c 0
 598.552 545.001 735.5 412.658 735.5 270.001 c 0
 735.5 127.344 598.552 -4.99902 385.5 -4.99902 c 0
 172.744 -4.99902 35.8799 126.977 35.5 269.406 c 2
 35.5 270 l 1
 34 393.937 l 1
 35.5 393.967 l 1
 35.5 394.998 l 2
 35.5 486.234 56.708 587.41 107.625 670.873 c 0
 158.543 754.336 245.626 819.998 360.5 819.998 c 0
385.501 444.998 m 0
 212.417 444.998 135.909 348.77 135.501 270.623 c 2
 135.501 269.998 l 2
 135.501 191.741 211.954 94.998 385.501 94.998 c 0
 559.049 94.998 635.501 191.741 635.501 269.998 c 0
 635.501 348.255 559.049 444.998 385.501 444.998 c 0
EndSplineSet
Validated: 524289
EndChar

StartChar: seven
Encoding: 55 55 24
Width: 477
GlyphClass: 2
Flags: MW
HStem: -0.469727 21G<5.34375 117.001 5.34375 5.34375> 700.719 99.2803
LayerCount: 2
Fore
SplineSet
4 800 m 1
 454.001 799.999 l 1
 454.001 799.53 l 1
 463.751 799.53 l 1
 463.751 697.624 l 1
 300.657 369.124 l 1
 300.501 369.155 l 1
 117.001 -0.469727 l 1
 5.34375 -0.469727 l 1
 303.812 600.749 l 1
 304 600.719 l 1
 353.624 700.719 l 1
 4 700.719 l 1
 4 800 l 1
EndSplineSet
Validated: 524289
EndChar

StartChar: eight
Encoding: 56 56 25
Width: 756
GlyphClass: 2
Flags: MW
HStem: -20 100<291.227 464.774 291.227 484.526> 430 100<325.5 430.5 325.5 464.774> 730 100<325.5 430.5>
VStem: 28 100<215.872 294.128 215.872 303.03> 128 100<609.167 650.833 609.167 684.167> 528 100<609.167 650.833> 628 100<215.872 294.128>
LayerCount: 2
Fore
SplineSet
378 830 m 0xe8
 523 830 628 738.333 628 630 c 0xec
 628 577.018 602.844 528.048 560.219 491.812 c 1
 665.834 442.362 728 351.061 728 255 c 0
 728 112.343 591.052 -20 378 -20 c 0
 164.948 -20 28 112.343 28 255 c 0xf2
 28 351.061 90.166 442.362 195.782 491.812 c 1
 153.157 528.048 128 577.018 128 630 c 0
 128 738.333 233 830 378 830 c 0xe8
378 730 m 0
 273 730 228 671.667 228 630 c 0
 228 588.333 273 530 378 530 c 0
 483 530 528 588.333 528 630 c 0
 528 671.667 483 730 378 730 c 0
378 430 m 0
 204.453 430 128 333.257 128 255 c 0
 128 176.743 204.453 80 378 80 c 0
 551.548 80 628 176.743 628 255 c 0xf2
 628 333.257 551.548 430 378 430 c 0
EndSplineSet
Validated: 524289
EndChar

StartChar: nine
Encoding: 57 57 26
Width: 766
GlyphClass: 2
Flags: MW
HStem: -13.998 99.998 261 100.002 711.002 99.998
VStem: 30 100 630 100
LayerCount: 2
Fore
SplineSet
405 -13.998 m 0
 262.225 -14 166.941 46.7881 100.404 95.6855 c 1
 159.592 176.279 l 1
 222.284 130.209 289.316 85.998 404.999 85.998 c 0
 483.967 85.998 534.377 124.729 572.499 187.218 c 0
 598.362 229.614 615.588 282.994 623.999 336.343 c 1
 563.774 290.38 480.34 260.999 380 260.999 c 0
 166.948 260.999 30 393.342 30 535.999 c 0
 30 678.656 166.948 810.999 380 810.999 c 0
 592.756 810.999 729.619 679.023 730 536.594 c 2
 730 536 l 1
 731.5 412.062 l 1
 730 412.033 l 1
 730 411.002 l 2
 730 319.766 708.791 218.59 657.875 135.127 c 0
 606.956 51.6641 519.873 -13.998 405 -13.998 c 0
379.999 361 m 0
 553.083 361 629.591 457.228 629.999 535.375 c 2
 629.999 536 l 2
 629.999 614.257 553.546 711 379.999 711 c 0
 206.451 711 129.999 614.257 129.999 536 c 0
 129.999 457.743 206.451 361 379.999 361 c 0
EndSplineSet
Validated: 524321
EndChar

StartChar: colon
Encoding: 58 58 27
Width: 170
GlyphClass: 2
Flags: MW
HStem: -43.5 92<72.3271 97.7349> 99.6562 91.9998
VStem: 39.0004 92.031
LayerCount: 2
Fore
SplineSet
85.0312 48.5 m 0
 59.623 48.5 39 27.9072 39 2.5 c 0
 39 -22.9072 59.623 -43.5 85.0312 -43.5 c 0
 110.438 -43.5 131.031 -22.9072 131.031 2.5 c 0
 131.031 27.9072 110.438 48.5 85.0312 48.5 c 0
85.0312 191.656 m 0
 59.623 191.656 39 171.064 39 145.656 c 0
 39 120.249 59.623 99.6562 85.0312 99.6562 c 0
 110.438 99.6562 131.031 120.249 131.031 145.656 c 0
 131.031 171.064 110.438 191.656 85.0312 191.656 c 0
EndSplineSet
Validated: 524297
EndChar

StartChar: semicolon
Encoding: 59 59 28
Width: 182
GlyphClass: 2
Flags: MW
HStem: -19.1875 102.156 140.812 102.188
VStem: 39.9062 102.156
LayerCount: 2
Fore
SplineSet
90.0938 243 m 0
 118.31 243 141.155 220.121 141.155 191.906 c 0
 141.155 163.69 118.31 140.812 90.0938 140.812 c 0
 61.8779 140.812 39 163.69 39 191.906 c 0
 39 220.121 61.8779 243 90.0938 243 c 0
90.9688 82.9688 m 0
 119.184 82.9688 142.062 60.0908 142.062 31.875 c 0
 142.062 31.4756 142.04 31.084 142.031 30.6875 c 1
 142.116 30.7295 142.196 30.7705 142.281 30.8125 c 2
 142.781 32.8125 l 1
 138.708 -45.0928 120.464 -81.0957 51.2812 -87.6875 c 1
 94.3779 -67.9561 101.116 -40.7158 108.375 -16.1562 c 1
 102.95 -18.1191 97.0703 -19.1875 90.9688 -19.1875 c 0
 62.7529 -19.1875 39.9062 3.65918 39.9062 31.875 c 0
 39.9062 60.0908 62.7529 82.9688 90.9688 82.9688 c 0
EndSplineSet
Validated: 524289
EndChar

StartChar: question
Encoding: 63 63 29
Width: 637
GlyphClass: 2
Flags: MW
HStem: -43.5 92.0289 766.27 90.227
VStem: 202.687 92.001 525.886 90.0569
LayerCount: 2
Fore
SplineSet
279.35 856.497 m 0
 278.012 856.491 276.682 856.466 275.354 856.437 c 0
 110.69 852.953 12.999 680.849 12.999 680.849 c 1
 89.5488 633.456 l 1
 89.5488 633.456 184.119 771.001 287.369 766.265 c 0
 349.838 763.397 412.353 745.369 455.861 713.916 c 0
 499.372 682.463 525.882 641.233 525.882 575.618 c 0
 525.882 510.242 494.665 468.277 454.792 433.468 c 1
 454.792 433.496 l 1
 415.211 398.942 364.699 371.489 333.241 345.323 c 0
 292.021 311.039 207.47 245.067 207.47 100.561 c 2
 207.47 91.752 l 1
 297.527 91.752 l 1
 297.527 100.561 l 2
 297.527 214.848 343.242 236.518 390.822 276.092 c 0
 404.357 287.35 464.611 322.498 514.034 365.646 c 0
 565.144 410.265 615.939 479.717 615.939 575.624 c 0
 615.939 668.293 571.121 741.703 508.603 786.897 c 0
 446.085 832.093 367.863 852.742 291.506 856.244 c 0
 287.419 856.432 283.361 856.516 279.35 856.497 c 0
248.674 48.5264 m 0
 223.263 48.5264 202.687 27.9229 202.687 2.5127 c 0
 202.687 -22.8975 223.263 -43.501 248.674 -43.501 c 0
 274.084 -43.501 294.688 -22.8975 294.688 2.5127 c 0
 294.688 27.9229 274.084 48.5264 248.674 48.5264 c 0
EndSplineSet
Validated: 524329
EndChar

StartChar: at
Encoding: 64 64 30
Width: 864
GlyphClass: 2
Flags: MW
HStem: 3.625 100 216.625 100 228.938 100.062 410 100 685.844 100
VStem: 34.0039 100 277.442 99.968 733.879 100.125
LayerCount: 2
Fore
SplineSet
434.004 785.844 m 0xdf
 213.682 785.844 33.998 606.169 33.998 385.848 c 0
 33.998 165.216 218.527 3.62891 435.779 3.62891 c 0
 494.056 3.62891 558.183 18.1436 614.811 41.5039 c 0
 671.44 64.8643 723.925 92.583 746.25 149.723 c 1
 653.094 186.129 l 1
 651.385 181.755 621.311 152.349 576.687 133.94 c 0
 532.062 115.532 476.235 103.627 435.779 103.627 c 0
 266.434 103.627 134 219.878 134 385.846 c 0
 134 552.123 267.722 685.846 434 685.846 c 0
 600.548 685.846 731.677 565.622 733.875 390.44 c 1
 730.281 372.223 l 2
 724.396 342.512 715.231 329.79 708.906 324.066 c 0
 702.581 318.345 697.24 316.79 688.062 316.631 c 0xdf
 678.887 316.472 666.885 319.305 657.627 323.131 c 0
 653.048 325.022 649.137 327.108 646.908 328.475 c 0
 618.538 363.21 592.365 422.667 566.627 480.6 c 0
 540.272 539.918 518.768 600.843 460.032 634.006 c 1
 410.876 546.912 l 1
 416.038 543.997 426.563 530.283 439.063 509.727 c 1
 437.096 509.78 435.22 510.006 433.222 510.006 c 0
 401.299 510.006 364.617 502.413 332.284 477.881 c 0
 299.951 453.349 276.493 408.997 277.441 357.006 c 0
 278.238 313.268 303.839 278.938 330.939 259.066 c 0
 358.04 239.197 386.425 228.942 417.095 228.942 c 2
 418.031 228.942 l 1xbf
 418.971 229.004 l 1
 481.93 231.352 527.904 252.349 557.096 281.033 c 1
 562.052 274.207 567.251 267.536 572.721 261.096 c 0
 581.684 250.543 587.087 247.866 594.377 243.377 c 0
 601.667 238.888 609.923 234.641 619.408 230.721 c 0
 638.378 222.881 662.164 216.146 689.814 216.627 c 0
 717.467 217.107 750.014 226.391 776.004 249.908 c 0
 801.994 273.427 819.574 308.351 828.384 352.781 c 2
 833.034 376.281 l 1
 834.004 381.094 l 1
 834.004 386 l 2
 834.004 615.01 652.52 785.844 434.004 785.844 c 0xdf
433.217 410.004 m 0
 464.793 410.004 476.635 401.087 484.467 392.501 c 0
 492.299 383.915 494.81 370.815 494.81 370.251 c 2
 494.81 367.907 l 1
 495.027 365.597 l 2
 493.991 376.707 500.373 332.667 416.715 329.003 c 0xbf
 414.39 329.196 399.235 332.961 390.058 339.69 c 0
 380.635 346.6 377.532 351.75 377.402 358.848 c 0
 376.937 384.405 383.335 391.104 392.717 398.223 c 0
 402.099 405.341 419.019 410.004 433.217 410.004 c 0
EndSplineSet
Validated: 524325
EndChar

StartChar: A
Encoding: 65 65 31
Width: 620
GlyphClass: 2
Flags: W
LayerCount: 2
Fore
SplineSet
210 800 m 1
 10 0 l 1
 110 0 l 1
 135 100 l 1
 485 100 l 1
 510 0 l 1
 610 0 l 1
 410 800 l 1
 210 800 l 1
279.312 700 m 1
 340.688 700 l 1
 454.312 200 l 1
 165.688 200 l 1
 279.312 700 l 1
EndSplineSet
Validated: 524297
EndChar

StartChar: B
Encoding: 66 66 32
Width: 771
GlyphClass: 2
Flags: MW
HStem: -2.3125 100 450 100 700 100
VStem: 513 100 644.528 99.9999
LayerCount: 2
Fore
SplineSet
411.719 800.219 m 0
 404.893 800.21 397.48 800.14 389.405 799.998 c 0
 383.967 800.098 379.304 800.138 375.654 800.123 c 0
 370.183 800.123 366.999 799.998 366.999 799.998 c 1
 142.999 799.998 l 1
 42.999 799.998 l 1
 42.999 699.998 l 1
 42.999 -0.00195312 l 1
 137.281 -0.00195312 l 1
 137.281 -1.43945 l 1
 490.125 -2.31445 l 1
 490.718 -2.31445 l 1
 491.281 -2.31445 l 1
 491.281 -2.31445 554.073 -1.9248 617.188 33.8105 c 0
 680.299 69.5439 744.528 148.075 744.528 275.688 c 0
 744.528 405.815 667.948 483.985 596.75 517.344 c 0
 591.616 519.749 586.496 521.939 581.407 524 c 1
 599.998 550.72 613 585.299 613 627 c 0
 613 709.766 556.794 763.971 508 784.625 c 0
 479.304 796.772 459.503 800.285 411.719 800.219 c 0
143 699.998 m 1
 367 700.001 l 1
 381.969 700.001 l 2
 404.971 699.746 448.48 698.184 467.998 690.156 c 0
 495.155 678.99 512.998 669.234 512.998 627 c 0
 512.998 581.433 496.655 570.591 476.312 559.938 c 0
 458.512 550.614 388.183 550.007 370.876 549.998 c 2
 367 549.998 l 1
 143 549.998 l 1
 143 699.998 l 1
143 450.001 m 1
 366.998 449.998 l 1
 371.905 449.998 l 1
 456.748 449.998 l 1
 456.748 449.687 l 1
 456.748 449.687 506.511 451.174 554.311 428.78 c 0
 602.109 406.388 644.524 370.559 644.524 275.688 c 0
 644.524 178.299 606.789 140.83 567.903 118.813 c 0
 529.151 96.873 490.175 97.6963 489.905 97.6885 c 2
 489.812 97.6885 l 2
 376.309 98.1484 157.13 100.328 143.001 100.47 c 1
 143 450.001 l 1
EndSplineSet
Validated: 524329
EndChar

StartChar: C
Encoding: 67 67 33
Width: 700
GlyphClass: 2
Flags: MW
HStem: -25.875 100<369.977 489.772 369.977 498.871> 724.125 100<369.977 489.772>
VStem: 35 99<309.378 488.872 309.378 516.485>
LayerCount: 2
Fore
SplineSet
460 824.125 m 0
 225.279 824.125 35 633.846 35 399.125 c 0
 35 164.404 225.279 -25.875 460 -25.875 c 0
 537.742 -25.875 610.589 -4.98047 673.281 31.4688 c 1
 623.406 117.844 l 1
 575.366 90.0479 519.544 74.125 460 74.125 c 0
 279.954 74.125 134 219.632 134 399.125 c 0
 134 578.618 279.954 724.125 460 724.125 c 0
 519.544 724.125 575.366 708.202 623.406 680.406 c 1
 673.281 766.781 l 1
 610.589 803.23 537.742 824.125 460 824.125 c 0
EndSplineSet
Validated: 524297
EndChar

StartChar: D
Encoding: 68 68 34
Width: 735
GlyphClass: 2
Flags: MW
HStem: 0 100 700.125 100.031
VStem: 600.752 100
LayerCount: 2
Fore
SplineSet
154.971 801.406 m 0
 124.029 801.353 93.4863 801.08 67.0293 800.562 c 2
 42.998 800.562 l 1
 42.998 -0.46875 l 1
 142.998 -0.46875 l 1
 142.998 0 l 1
 146.279 0 l 1
 348.061 0 l 1
 348.375 0 l 1
 348.656 0 l 1
 529.758 2.11035 700.75 165.199 700.75 403.125 c 0
 700.75 641.458 524.424 799.674 344.125 800.094 c 1
 344.125 800.156 l 1
 343.406 800.156 l 2
 342.479 800.156 247.34 801.573 154.971 801.406 c 0
154.811 701.374 m 0
 246.149 701.524 342.688 700.123 342.688 700.123 c 1
 343.031 700.123 l 1
 343.406 700.123 l 2
 465.533 700.123 600.75 593.263 600.75 403.123 c 0
 600.75 212.258 469.053 101.414 347.5 99.998 c 1
 146.281 99.998 l 1
 143 99.998 l 1
 143 701.311 l 1
 146.935 701.311 150.849 701.374 154.811 701.374 c 0
EndSplineSet
Validated: 524329
EndChar

StartChar: E
Encoding: 69 69 35
Width: 664
GlyphClass: 2
Flags: W
LayerCount: 2
Fore
SplineSet
43 800 m 1
 43 700 l 1
 43 550 l 1
 43 450 l 1
 43 100 l 1
 43 0 l 1
 643.005 0 l 1
 643.005 100 l 1
 143 100 l 1
 143 450 l 1
 543 450 l 1
 543 550 l 1
 143 550 l 1
 143 700 l 1
 643.005 700 l 1
 643.005 800 l 1
 143 800 l 1
 43 800 l 1
EndSplineSet
Validated: 524297
EndChar

StartChar: F
Encoding: 70 70 36
Width: 647
GlyphClass: 2
Flags: W
LayerCount: 2
Fore
SplineSet
43 800 m 1
 43 700 l 1
 43 550 l 1
 43 450 l 1
 43 0 l 1
 143 0 l 1
 143 450 l 1
 542.999 450 l 1
 542.999 550 l 1
 143 550 l 1
 143 700 l 1
 642.999 700 l 1
 642.999 800 l 1
 143 800 l 1
 43 800 l 1
EndSplineSet
Validated: 524297
EndChar

StartChar: G
Encoding: 71 71 37
Width: 895
GlyphClass: 2
Flags: MW
HStem: -14.3438 100 735.656 100
VStem: 34.9993 100
LayerCount: 2
Fore
SplineSet
459.999 835.656 m 0
 225.279 835.656 35 645.375 35 410.654 c 0
 35 175.935 225.28 -14.3438 460 -14.3438 c 0
 637.409 -14.3438 789.438 94.3496 853.098 248.781 c 1
 853.098 360.656 l 1
 781.188 360.656 l 1
 610.001 360.656 l 1
 360.001 360.656 l 1
 360.001 260.656 l 1
 748.376 260.656 l 1
 694.175 156.662 585.387 85.6562 460.001 85.6562 c 0
 280.509 85.6562 135.001 231.163 135.001 410.656 c 0
 135.001 590.149 280.509 735.656 460.001 735.656 c 0
 580.287 735.656 685.304 670.318 741.501 573.188 c 1
 828.097 623.188 l 1
 754.605 750.192 617.288 835.656 459.999 835.656 c 0
EndSplineSet
Validated: 524297
EndChar

StartChar: H
Encoding: 72 72 38
Width: 738
GlyphClass: 2
Flags: W
LayerCount: 2
Fore
SplineSet
43 800 m 1
 43 550 l 1
 43 450 l 1
 43 0 l 1
 143 0 l 1
 143 450 l 1
 595 450 l 1
 595 0 l 1
 694.999 0 l 1
 694.999 800 l 1
 595 800 l 1
 595 550 l 1
 143 550 l 1
 143 800 l 1
 43 800 l 1
EndSplineSet
Validated: 524297
EndChar

StartChar: I
Encoding: 73 73 39
Width: 186
GlyphClass: 2
Flags: MW
HStem: 0 21G<43 143 43 43> 780 20G<43 143 143 143> 780 20G<43 143 143 143>
VStem: 43 100<0 800 0 800>
LayerCount: 2
Fore
SplineSet
43 800 m 1xd0
 143 800 l 1
 143 0 l 1
 43 0 l 1
 43 800 l 1xd0
EndSplineSet
Validated: 1
EndChar

StartChar: J
Encoding: 74 74 40
Width: 656
GlyphClass: 2
Flags: MW
HStem: -24.3141 100
VStem: 517.845 100.005
LayerCount: 2
Fore
SplineSet
518.376 800.281 m 1
 517.844 601.846 l 1
 517.844 601.625 l 1
 516.279 388.689 l 2
 515.759 318.084 497.641 235.544 458.437 175.562 c 0
 419.232 115.58 364.391 75.6855 269.437 75.6855 c 0
 186.242 75.6855 132.456 106.547 93.3105 154.624 c 1
 5.99805 104.217 l 1
 62.1377 30.248 151.816 -24.3145 269.436 -24.3145 c 0
 395.444 -24.3145 488.434 38.6963 542.124 120.842 c 0
 595.818 202.988 615.648 301.77 616.278 387.938 c 2
 617.85 601.123 l 1
 617.85 601.219 l 1
 617.85 601.344 l 1
 618.38 800 l 1
 518.376 800.281 l 1
EndSplineSet
Validated: 524297
EndChar

StartChar: K
Encoding: 75 75 41
Width: 606
GlyphClass: 2
Flags: W
LayerCount: 2
Fore
SplineSet
426.844 799.844 m 1
 201.969 506.281 l 1
 201.657 506.625 l 1
 201.625 505.844 l 1
 198.188 501.344 l 1
 143 501.344 l 1
 143 798.125 l 1
 43 798.125 l 1
 43 -1.875 l 1
 143 -1.875 l 1
 143 355.938 l 1
 196.812 355.938 l 1
 469.779 0 l 1
 595.777 -0 l 1
 267.812 427.969 l 1
 552.809 799.844 l 1
 426.844 799.844 l 1
EndSplineSet
Validated: 524297
EndChar

StartChar: L
Encoding: 76 76 42
Width: 547
GlyphClass: 2
Flags: W
LayerCount: 2
Fore
SplineSet
43 800 m 1
 43 0 l 1
 542.999 0 l 1
 542.999 100 l 1
 143 100 l 1
 143 800 l 1
 43 800 l 1
EndSplineSet
Validated: 524297
EndChar

StartChar: M
Encoding: 77 77 43
Width: 783
GlyphClass: 2
Flags: W
LayerCount: 2
Fore
SplineSet
106.125 800.5 m 1
 106.312 800 l 1
 106.124 800 l 1
 43 0 l 1
 143.312 -0 l 1
 189.062 579.719 l 1
 348.373 155.625 l 1
 432.78 155.625 l 1
 593.405 583.25 l 1
 639.438 0 l 1
 739.752 0 l 1
 676.622 800 l 1
 674.842 800 l 1
 675.032 800.5 l 1
 568.188 800.5 l 1
 390.562 327.656 l 1
 212.938 800.5 l 1
 106.125 800.5 l 1
EndSplineSet
Validated: 524297
EndChar

StartChar: N
Encoding: 78 78 44
Width: 736
GlyphClass: 2
Flags: W
LayerCount: 2
Fore
SplineSet
43 800 m 1
 43 0 l 1
 143 0 l 1
 143 644.562 l 1
 593 162.406 l 1
 593 0 l 1
 693 0 l 1
 693 25 l 1
 693 142.344 l 1
 693 166.688 l 1
 693 650 l 1
 693 800 l 1
 593 800 l 1
 593 317.844 l 1
 143 800 l 1
 43 800 l 1
EndSplineSet
Validated: 524297
EndChar

StartChar: O
Encoding: 79 79 45
Width: 920
GlyphClass: 2
Flags: MW
HStem: -25 100<369.978 550.023 369.978 577.36> 725 100<369.978 550.023>
VStem: 35.0003 99 786.002 99
LayerCount: 2
Fore
SplineSet
460 825 m 0
 225.279 825 35 634.721 35 400 c 0
 35 165.279 225.279 -25 460 -25 c 0
 694.721 -25 885.002 165.279 885.002 400 c 0
 885.002 634.721 694.721 825 460 825 c 0
460 725 m 0
 640.046 725 786.002 579.492 786.002 400 c 0
 786.002 220.508 640.046 75 460 75 c 0
 279.955 75 134 220.508 134 400 c 0
 134 579.492 279.955 725 460 725 c 0
EndSplineSet
Validated: 524297
EndChar

StartChar: P
Encoding: 80 80 46
Width: 753
GlyphClass: 2
Flags: MW
HStem: 149.875 100.156 700.906 99.125
VStem: 637.845 100.31
LayerCount: 2
Fore
SplineSet
340.969 802.062 m 2
 340.969 802.062 171.178 802.062 67.0625 800.031 c 1
 67.0625 800 l 1
 43 800 l 1
 43 0 l 1
 143 0 l 1
 143 149.875 l 1
 343 149.875 l 2
 425.071 149.875 519.455 166.29 598.469 215.969 c 0
 677.483 265.646 738.153 354.394 738.153 475.969 c 0
 738.153 597.698 676.845 686.521 597.375 736.125 c 0
 517.909 785.729 423.04 802.062 340.969 802.062 c 2
340.969 701.906 m 2
 408.896 701.906 487.736 686.404 544.252 651.127 c 0
 600.768 615.849 637.847 566.74 637.847 475.969 c 0
 637.847 385.043 601.02 335.857 545.031 300.656 c 0
 489.045 265.455 410.929 250.031 343 250.031 c 2
 143 250.031 l 1
 143 700.906 l 1
 237.119 701.871 340.969 701.906 340.969 701.906 c 2
EndSplineSet
Validated: 524297
EndChar

StartChar: Q
Encoding: 81 81 47
Width: 900
GlyphClass: 2
Flags: MW
HStem: -24.0001 100.062 725.919 100.254
VStem: 35.0024 99.063 786 99.1299
LayerCount: 2
Fore
SplineSet
460.034 826.125 m 1
 460.006 826.144 459.985 826.145 459.985 826.115 c 0
 459.985 826.088 460.008 826.081 460.036 826.1 c 2
 460.004 826.1 l 2
 421.506 826.094 384.218 820.945 348.754 811.35 c 1
 348.723 811.35 l 1
 341.976 809.521 335.301 807.525 328.69 805.381 c 1
 328.659 805.381 l 1
 310.466 799.473 292.807 792.363 275.782 784.16 c 1
 275.75 784.16 l 1
 266.468 779.688 257.392 774.867 248.5 769.754 c 1
 248.469 769.754 l 1
 221.776 754.404 196.917 736.234 174.28 715.66 c 1
 174.248 715.66 l 1
 88.71 637.912 34.998 525.766 34.998 401.065 c 0
 34.998 166.317 225.313 -23.9971 460.062 -23.9971 c 0
 515.92 -23.9971 569.237 -13.207 618.096 6.37793 c 0
 618.107 6.3877 618.113 6.40332 618.125 6.4082 c 0
 619.741 7.05664 621.363 7.70996 622.971 8.37695 c 0
 622.982 8.38672 622.988 8.40234 623 8.40723 c 0
 624.606 9.07422 626.219 9.7207 627.813 10.4072 c 1
 647.657 -23.9678 l 1
 647.657 -23.9336 l 2
 647.629 -23.9336 647.606 -23.9561 647.606 -23.9834 c 0
 647.606 -24.0107 647.63 -24.0176 647.658 -23.999 c 2
 647.623 -23.999 l 2
 647.623 -24.0264 647.646 -24.0488 647.674 -24.0488 c 0
 647.702 -24.0488 647.709 -24.0264 647.689 -23.999 c 2
 647.655 -23.999 l 2
 647.655 -24.0264 647.678 -24.0488 647.706 -24.0488 c 0
 647.733 -24.0488 647.74 -24.0264 647.723 -23.999 c 2
 763.129 -23.999 l 1
 763.095 -23.999 l 2
 763.095 -24.0264 763.116 -24.0488 763.146 -24.0488 c 0
 763.174 -24.0488 763.181 -24.0264 763.162 -23.999 c 2
 763.162 -24.0332 l 2
 763.189 -24.0332 763.214 -24.0107 763.214 -23.9834 c 0
 763.214 -23.9561 763.189 -23.9492 763.162 -23.9678 c 2
 763.162 -24.002 l 2
 763.189 -24.002 763.214 -23.9795 763.214 -23.9521 c 0
 763.214 -23.9248 763.189 -23.918 763.162 -23.9365 c 2
 763.13 -23.9365 l 1
 763.13 -23.9053 l 1
 754.412 -8.78027 l 1
 754.412 -8.74902 l 1
 754.377 -8.74902 l 2
 754.377 -8.77637 754.4 -8.79883 754.429 -8.79883 c 0
 754.457 -8.79883 754.464 -8.77637 754.445 -8.74902 c 2
 754.445 -8.7832 l 2
 754.475 -8.7832 754.496 -8.76074 754.496 -8.7334 c 0
 754.496 -8.70605 754.475 -8.69922 754.445 -8.71777 c 2
 754.445 -8.75195 l 2
 754.475 -8.75195 754.496 -8.72949 754.496 -8.70215 c 0
 754.496 -8.6748 754.474 -8.66797 754.444 -8.6875 c 2
 714.444 60.5312 l 1
 717.677 62.9492 720.849 65.4316 724.008 67.9375 c 0
 724.014 67.9473 724.031 67.9277 724.038 67.9375 c 0
 822.164 145.797 885.134 266.065 885.134 401.062 c 0
 885.134 635.811 694.815 826.124 460.067 826.124 c 2
 460.103 826.124 l 2
 460.103 826.152 460.079 826.175 460.051 826.175 c 0
 460.022 826.175 460.017 826.151 460.034 826.125 c 1
460.067 726.008 m 1
 505.056 726.004 547.959 716.939 586.94 700.507 c 0
 586.953 700.502 586.959 700.481 586.971 700.477 c 0
 635.703 679.925 678.392 647.898 711.597 607.787 c 1
 711.597 607.756 l 1
 758.088 551.59 786.001 479.58 786.001 401.068 c 0
 786.001 298.606 738.451 207.223 664.129 147.664 c 1
 629.41 207.789 l 2
 629.438 207.771 629.462 207.777 629.462 207.807 c 0
 629.462 207.834 629.438 207.858 629.41 207.858 c 2
 629.41 207.822 l 2
 629.43 207.852 629.423 207.874 629.395 207.874 c 0
 629.366 207.874 629.343 207.852 629.343 207.822 c 2
 629.378 207.822 l 2
 629.396 207.852 629.39 207.874 629.36 207.874 c 0
 629.332 207.874 629.312 207.852 629.312 207.822 c 2
 629.346 207.822 l 2
 629.363 207.852 629.356 207.874 629.329 207.874 c 0
 629.301 207.874 629.279 207.852 629.279 207.822 c 2
 629.313 207.822 l 1
 629.282 207.762 l 1
 586 182.793 l 1
 542.75 157.824 l 1
 542.688 157.793 l 2
 542.66 157.812 542.639 157.805 542.639 157.776 c 0
 542.639 157.748 542.66 157.725 542.688 157.725 c 2
 542.688 157.76 l 2
 542.66 157.777 542.639 157.771 542.639 157.742 c 0
 542.639 157.715 542.659 157.69 542.688 157.69 c 2
 542.688 157.727 l 1
 577.312 97.7578 l 1
 540.913 83.7559 501.353 76.0703 460.001 76.0703 c 0
 279.983 76.0703 134.064 221.542 134.064 401.008 c 0
 134.064 580.473 279.983 725.977 460.001 725.977 c 2
 459.967 725.977 l 2
 459.967 725.947 459.988 725.926 460.018 725.926 c 0
 460.046 725.926 460.053 725.947 460.034 725.977 c 2
 459.999 725.977 l 2
 459.999 725.947 460.022 725.926 460.051 725.926 c 0
 460.079 725.926 460.086 725.947 460.067 725.977 c 2
 460.067 726.008 l 1
EndSplineSet
Validated: 524293
EndChar

StartChar: R
Encoding: 82 82 48
Width: 761
GlyphClass: 2
Flags: MW
HStem: 698.875 100.031
VStem: 639.876 100.186
LayerCount: 2
Fore
SplineSet
343.001 800.094 m 2
 343.001 800.094 224.495 800.09 124.717 798.902 c 1
 42.998 798.902 l 1
 42.998 -0.00390625 l 1
 142.998 -0.00390625 l 1
 142.998 123.527 l 1
 343.341 124.902 l 2
 354.918 124.981 366.745 125.437 378.717 126.277 c 1
 506.091 -1.09766 l 1
 647.529 -1.09766 l 1
 497.904 148.527 l 1
 533.388 159.754 568.122 175.447 600.25 196.56 c 0
 679.354 248.542 740.062 338.737 740.062 460.469 c 0
 740.062 582.198 679.69 673.251 600.72 726.469 c 0
 521.747 779.686 426.576 800.094 343.001 800.094 c 2
342.998 699.901 m 2
 409.423 699.901 487.707 681.786 544.718 643.369 c 0
 601.727 604.952 639.873 551.234 639.873 460.464 c 0
 639.873 369.691 602.096 317.685 545.217 280.307 c 0
 488.336 242.931 409.792 225.548 342.654 225.089 c 2
 142.998 223.714 l 1
 142.998 698.87 l 1
 237.651 699.856 342.998 699.901 342.998 699.901 c 2
EndSplineSet
Validated: 524297
EndChar

StartChar: S
Encoding: 83 83 49
Width: 758
GlyphClass: 2
Flags: MW
HStem: -23 100<306.685 410.999 306.685 418.72> 352 100 727 100<334.728 419.275>
VStem: 41.5312 99.9998 616.531 100
CounterMasks: 1 e0
LayerCount: 2
Fore
SplineSet
367.531 827 m 0
 488.055 827 576.703 795.708 635.037 743.03 c 0
 662.176 718.523 681.9 689.904 695.256 659.594 c 1
 597.85 631.969 l 1
 590.366 645.14 580.544 657.518 568.036 668.812 c 0
 532.371 701.02 471.014 727 367.536 727 c 0
 301.92 727 242.595 707.079 202.192 677.906 c 0
 161.79 648.734 141.535 613.367 141.535 577 c 0
 141.535 527.833 154.139 506.973 191.035 486.219 c 0
 227.933 465.465 295.702 452 391.535 452 c 1
 391.535 451.75 l 1
 483.954 449.949 558.071 437.574 616.035 404.969 c 0
 679.139 369.473 716.534 302.833 716.534 227 c 0
 716.534 155.672 679.864 88.8623 618.034 44.8438 c 0
 556.205 0.825195 470.905 -23 366.534 -23 c 0
 206.471 -23 89.3535 51.6924 41.0029 149.344 c 1
 139.253 177.25 l 1
 173.346 123.014 246.835 77 366.534 77 c 0
 455.464 77 520.188 97.9453 560.033 126.312 c 0
 599.879 154.68 616.533 187.871 616.533 227 c 0
 616.533 276.167 603.93 297.058 567.033 317.812 c 0
 530.137 338.566 462.366 351.999 366.532 351.999 c 1
 366.532 352.249 l 1
 274.114 354.055 199.997 366.456 142.032 399.062 c 0
 78.9287 434.558 41.5322 501.167 41.5322 577 c 0
 41.5322 651.09 83.7783 715.755 143.626 758.969 c 0
 203.474 802.182 282.148 827 367.531 827 c 0
EndSplineSet
Validated: 524289
EndChar

StartChar: T
Encoding: 84 84 50
Width: 604
GlyphClass: 2
Flags: W
LayerCount: 2
Fore
SplineSet
2 800 m 1
 2 700 l 1
 252 700 l 1
 252 0 l 1
 352 0 l 1
 352 700 l 1
 602 700 l 1
 602 800 l 1
 352 800 l 1
 252 800 l 1
 2 800 l 1
EndSplineSet
Validated: 9
EndChar

StartChar: U
Encoding: 85 85 51
Width: 785
GlyphClass: 2
Flags: MW
HStem: -24.0028 100.003
VStem: 42.9549 100 642.33 99.998
LayerCount: 2
Fore
SplineSet
42.9541 801.469 m 1
 40.8066 691.428 42.9541 389.227 42.9541 388.653 c 2
 42.9541 388.338 l 2
 43.0039 301.509 64.124 202.604 119.048 120.682 c 0
 174.035 38.6631 267.883 -24.0068 393.891 -24.0068 c 0
 519.899 -24.0068 613.013 39.0039 666.704 121.15 c 0
 720.397 203.298 740.129 302.171 740.769 388.339 c 2
 742.327 601.464 l 1
 742.327 601.619 l 1
 742.957 800.369 l 1
 642.954 800.686 l 1
 642.329 602.246 l 1
 642.329 601.938 l 1
 640.768 388.969 l 2
 640.245 318.364 622.157 235.824 582.954 175.843 c 0
 543.75 115.861 488.845 75.9971 393.891 75.9971 c 0
 298.938 75.9971 242.47 116.358 202.173 176.467 c 0
 161.875 236.574 142.954 318.781 142.954 388.655 c 2
 142.954 388.812 l 1
 142.954 388.967 l 1
 142.954 388.967 140.901 694.354 142.954 799.592 c 1
 42.9541 801.469 l 1
EndSplineSet
Validated: 524329
EndChar

StartChar: V
Encoding: 86 86 52
Width: 618
GlyphClass: 2
Flags: W
LayerCount: 2
Fore
SplineSet
9 800 m 1
 209.002 0 l 1
 409.002 0 l 1
 609.001 800 l 1
 510.377 800 l 1
 409.252 395.5 l 1
 409.438 395.5 l 1
 339.688 100 l 1
 278.312 100 l 1
 276.529 107.844 l 1
 276.154 105.03 l 1
 107.874 798.312 l 1
 108.467 798.628 l 1
 108.123 800.003 l 1
 9 800 l 1
EndSplineSet
Validated: 524297
EndChar

StartChar: W
Encoding: 87 87 53
Width: 1004
GlyphClass: 2
Flags: W
LayerCount: 2
Fore
SplineSet
13 800 m 1
 213.004 0.00488281 l 1
 413.004 0.00488281 l 1
 502.004 355.974 l 1
 591.004 0.00488281 l 1
 791.004 0.00488281 l 1
 991.004 800.005 l 1
 892.384 800.005 l 1
 791.254 395.505 l 1
 791.441 395.505 l 1
 721.691 100.005 l 1
 660.315 100.005 l 1
 658.565 107.849 l 1
 658.191 105.034 l 1
 550.349 549.223 l 1
 550.691 550.658 l 1
 550.004 550.658 l 1
 548.69 556.002 l 1
 452.002 556.002 l 1
 453.346 550.658 l 1
 452.062 550.658 l 1
 413.25 395.502 l 1
 413.438 395.502 l 1
 343.688 100.002 l 1
 282.312 100.002 l 1
 280.562 107.846 l 1
 280.188 105.031 l 1
 111.875 798.312 l 1
 112.469 798.625 l 1
 112.125 800 l 1
 13 800 l 1
EndSplineSet
Validated: 524297
EndChar

StartChar: X
Encoding: 88 88 54
Width: 566
GlyphClass: 2
Flags: W
LayerCount: 2
Fore
SplineSet
49.4688 800 m 1
 227.312 441.781 l 1
 8 0 l 1
 119.656 0 l 1
 283.25 329.5 l 1
 446.812 0 l 1
 558.469 0 l 1
 339.157 441.781 l 1
 517.001 800 l 1
 405.344 800 l 1
 306.656 601.188 l 1
 306.468 601.219 l 1
 283.25 554.406 l 1
 260 601.219 l 1
 259.812 601.188 l 1
 161.126 800 l 1
 49.4688 800 l 1
EndSplineSet
Validated: 524297
EndChar

StartChar: Y
Encoding: 89 89 55
Width: 609
GlyphClass: 2
Flags: W
LayerCount: 2
Fore
SplineSet
7 800 m 1
 502.281 155.969 l 1
 502.281 0 l 1
 602.281 0 l 1
 602.281 800 l 1
 502.281 800 l 1
 502.281 320 l 1
 133.188 800 l 1
 7 800 l 1
EndSplineSet
Validated: 524297
EndChar

StartChar: Z
Encoding: 90 90 56
Width: 428
GlyphClass: 2
Flags: W
LayerCount: 2
Fore
SplineSet
19.4062 800.156 m 1
 19.4062 700.156 l 1
 307.156 700.156 l 1
 258.219 601.312 l 1
 258.031 601.375 l 1
 10 100.375 l 1
 10 0 l 1
 71.6875 0 l 1
 71.875 0.375 l 1
 410.343 0.375 l 1
 410.343 99.9688 l 1
 121.187 99.9688 l 1
 254.718 369.719 l 1
 254.875 369.656 l 1
 417.968 699.062 l 1
 417.968 800.156 l 1
 404.875 800.156 l 1
 356.656 800.156 l 1
 19.4062 800.156 l 1
EndSplineSet
Validated: 524297
EndChar

StartChar: bracketleft
Encoding: 91 91 57
Width: 305
GlyphClass: 2
Flags: MW
HStem: -1.53125 99.6562 700.344 99.6562
VStem: 43 101.875<-1.71875 -1.53125 98.125 700.344> 43 231.906
LayerCount: 2
Fore
SplineSet
43 800 m 1xd0
 48.375 800 l 1
 144.875 800 l 1
 275.312 800 l 1
 275.312 700.344 l 1
 144.875 700.344 l 1
 144.875 98.125 l 1xe0
 274.906 98.125 l 1
 274.906 -1.53125 l 1xd0
 144.875 -1.53125 l 1
 144.875 -1.71875 l 1
 43 -1.71875 l 1xe0
 43 800 l 1xd0
EndSplineSet
Validated: 524289
EndChar

StartChar: backslash
Encoding: 92 92 58
Width: 517
GlyphClass: 2
Flags: MW
HStem: 0.0185547 21G<401.342 512.999 401.342 401.342> 780 20G<4 115.656 115.653 115.656 115.653 115.653> 780 20G<4 115.656 115.653 115.656 115.653 115.653>
LayerCount: 2
Fore
SplineSet
115.653 800 m 1xc0
 214.34 601.188 l 1
 214.53 601.237 l 1
 512.999 0.0185547 l 1
 401.342 0.0185547 l 1
 217.842 369.644 l 1
 217.687 369.594 l 1
 4 800 l 1xa0
 115.656 800 l 1
 115.653 800 l 1xc0
EndSplineSet
Validated: 524293
EndChar

StartChar: bracketright
Encoding: 93 93 59
Width: 305
GlyphClass: 2
Flags: MW
HStem: -1.53125 99.6562 700.344 99.6562
VStem: 30.4375 231.875 160.469 101.844
LayerCount: 2
Fore
SplineSet
30 800 m 1xd0
 160.469 800 l 1xd0
 256.969 800 l 1
 262.312 800 l 1xe0
 262.312 -1.71875 l 1
 160.469 -1.71875 l 1
 160.469 -1.53125 l 1xd0
 30.4375 -1.53125 l 1
 30.4375 98.125 l 1xe0
 160.469 98.125 l 1
 160.469 700.344 l 1
 30 700.344 l 1
 30 800 l 1xd0
EndSplineSet
Validated: 524289
EndChar

StartChar: asciicircum
Encoding: 94 94 60
Width: 356
GlyphClass: 2
Flags: MW
VStem: 28.0002 300
LayerCount: 2
Fore
SplineSet
28 952 m 1
 28 827 l 1
 78 827 l 1
 78 877 l 1
 278 877 l 1
 278 826 l 1
 328 826 l 1
 328 952 l 1
 278 952 l 1
 78 952 l 1
 28 952 l 1
EndSplineSet
Validated: 9
EndChar

StartChar: grave
Encoding: 96 96 61
Width: 484
GlyphClass: 2
Flags: MW
HStem: 851.67 150
LayerCount: 2
Fore
SplineSet
155 1001.67 m 1
 189.093 851.67 l 1
 267.374 851.67 l 1
 229.874 1001.67 l 1
 155 1001.67 l 1
EndSplineSet
Validated: 524289
EndChar

StartChar: a
Encoding: 97 97 62
Width: 660
GlyphClass: 2
Flags: W
LayerCount: 2
Fore
SplineSet
226 800 m 1
 26 0 l 1
 126 0 l 1
 151 100 l 1
 501 100 l 1
 526 0 l 1
 626 0 l 1
 426 800 l 1
 226 800 l 1
295.312 700 m 1
 356.688 700 l 1
 470.312 200 l 1
 181.688 200 l 1
 295.312 700 l 1
EndSplineSet
Validated: 524297
EndChar

StartChar: b
Encoding: 98 98 63
Width: 784
GlyphClass: 2
Flags: MW
HStem: -2.3125 100 450 100 700 100
VStem: 513 100 644.528 99.9999
LayerCount: 2
Fore
SplineSet
411.719 800.219 m 0
 404.893 800.21 397.48 800.14 389.405 799.998 c 0
 383.967 800.098 379.304 800.138 375.654 800.123 c 0
 370.183 800.123 366.999 799.998 366.999 799.998 c 1
 142.999 799.998 l 1
 42.999 799.998 l 1
 42.999 699.998 l 1
 42.999 -0.00195312 l 1
 137.281 -0.00195312 l 1
 137.281 -1.43945 l 1
 490.125 -2.31445 l 1
 490.718 -2.31445 l 1
 491.281 -2.31445 l 1
 491.281 -2.31445 554.073 -1.9248 617.188 33.8105 c 0
 680.299 69.5439 744.528 148.075 744.528 275.688 c 0
 744.528 405.815 667.948 483.985 596.75 517.344 c 0
 591.616 519.749 586.496 521.939 581.407 524 c 1
 599.998 550.72 613 585.299 613 627 c 0
 613 709.766 556.794 763.971 508 784.625 c 0
 479.304 796.772 459.503 800.285 411.719 800.219 c 0
143 699.998 m 1
 367 700.001 l 1
 381.969 700.001 l 2
 404.971 699.746 448.48 698.184 467.998 690.156 c 0
 495.155 678.99 512.998 669.234 512.998 627 c 0
 512.998 581.433 496.655 570.591 476.312 559.938 c 0
 458.512 550.614 388.183 550.007 370.876 549.998 c 2
 367 549.998 l 1
 143 549.998 l 1
 143 699.998 l 1
143 450.001 m 1
 366.998 449.998 l 1
 371.905 449.998 l 1
 456.748 449.998 l 1
 456.748 449.687 l 1
 456.748 449.687 506.511 451.174 554.311 428.78 c 0
 602.109 406.388 644.524 370.559 644.524 275.688 c 0
 644.524 178.299 606.789 140.83 567.903 118.813 c 0
 529.151 96.873 490.175 97.6963 489.905 97.6885 c 2
 489.812 97.6885 l 2
 376.309 98.1484 157.13 100.328 143.001 100.47 c 1
 143 450.001 l 1
EndSplineSet
Validated: 524329
EndChar

StartChar: c
Encoding: 99 99 64
Width: 698
GlyphClass: 2
Flags: MW
HStem: -25.875 100<368.977 488.772 368.977 497.871> 724.125 100<368.977 488.772>
VStem: 34 99<309.378 488.872 309.378 516.485>
LayerCount: 2
Fore
SplineSet
459 824.125 m 0
 224.279 824.125 34 633.846 34 399.125 c 0
 34 164.404 224.279 -25.875 459 -25.875 c 0
 536.742 -25.875 609.589 -4.98047 672.281 31.4688 c 1
 622.406 117.844 l 1
 574.366 90.0479 518.544 74.125 459 74.125 c 0
 278.954 74.125 133 219.632 133 399.125 c 0
 133 578.618 278.954 724.125 459 724.125 c 0
 518.544 724.125 574.366 708.202 622.406 680.406 c 1
 672.281 766.781 l 1
 609.589 803.23 536.742 824.125 459 824.125 c 0
EndSplineSet
Validated: 524297
EndChar

StartChar: d
Encoding: 100 100 65
Width: 740
GlyphClass: 2
Flags: MW
HStem: 0 100 700.125 100.031
VStem: 596.752 100
LayerCount: 2
Fore
SplineSet
150.971 801.406 m 0
 120.029 801.353 89.4863 801.08 63.0293 800.562 c 2
 38.998 800.562 l 1
 38.998 -0.46875 l 1
 138.998 -0.46875 l 1
 138.998 0 l 1
 142.279 0 l 1
 344.061 0 l 1
 344.375 0 l 1
 344.656 0 l 1
 525.758 2.11035 696.75 165.199 696.75 403.125 c 0
 696.75 641.458 520.424 799.674 340.125 800.094 c 1
 340.125 800.156 l 1
 339.406 800.156 l 2
 338.479 800.156 243.34 801.573 150.971 801.406 c 0
150.811 701.374 m 0
 242.149 701.524 338.688 700.123 338.688 700.123 c 1
 339.031 700.123 l 1
 339.406 700.123 l 2
 461.533 700.123 596.75 593.263 596.75 403.123 c 0
 596.75 212.258 465.053 101.414 343.5 99.998 c 1
 142.281 99.998 l 1
 139 99.998 l 1
 139 701.311 l 1
 142.935 701.311 146.849 701.374 150.811 701.374 c 0
EndSplineSet
Validated: 524329
EndChar

StartChar: e
Encoding: 101 101 66
Width: 665
GlyphClass: 2
Flags: W
LayerCount: 2
Fore
SplineSet
34 800 m 1
 34 700 l 1
 34 550 l 1
 34 450 l 1
 34 100 l 1
 34 0 l 1
 634.005 0 l 1
 634.005 100 l 1
 134 100 l 1
 134 450 l 1
 534 450 l 1
 534 550 l 1
 134 550 l 1
 134 700 l 1
 634.005 700 l 1
 634.005 800 l 1
 134 800 l 1
 34 800 l 1
EndSplineSet
Validated: 524297
EndChar

StartChar: f
Encoding: 102 102 67
Width: 618
GlyphClass: 2
Flags: W
LayerCount: 2
Fore
SplineSet
10 800 m 1
 10 700 l 1
 10 550 l 1
 10 450 l 1
 10 0 l 1
 110 0 l 1
 110 450 l 1
 509.999 450 l 1
 509.999 550 l 1
 110 550 l 1
 110 700 l 1
 609.999 700 l 1
 609.999 800 l 1
 110 800 l 1
 10 800 l 1
EndSplineSet
Validated: 524297
EndChar

StartChar: g
Encoding: 103 103 68
Width: 825
GlyphClass: 2
Flags: MW
HStem: -14.3438 100 735.656 100
VStem: 5.99927 100
LayerCount: 2
Fore
SplineSet
430.999 835.656 m 0
 196.279 835.656 6 645.375 6 410.654 c 0
 6 175.935 196.28 -14.3438 431 -14.3438 c 0
 608.409 -14.3438 760.438 94.3496 824.098 248.781 c 1
 824.098 360.656 l 1
 752.188 360.656 l 1
 581.001 360.656 l 1
 331.001 360.656 l 1
 331.001 260.656 l 1
 719.376 260.656 l 1
 665.175 156.662 556.387 85.6562 431.001 85.6562 c 0
 251.509 85.6562 106.001 231.163 106.001 410.656 c 0
 106.001 590.149 251.509 735.656 431.001 735.656 c 0
 551.287 735.656 656.304 670.318 712.501 573.188 c 1
 799.097 623.188 l 1
 725.605 750.192 588.288 835.656 430.999 835.656 c 0
EndSplineSet
Validated: 524297
EndChar

StartChar: h
Encoding: 104 104 69
Width: 736
GlyphClass: 2
Flags: W
LayerCount: 2
Fore
SplineSet
43 800 m 1
 43 550 l 1
 43 450 l 1
 43 0 l 1
 143 0 l 1
 143 450 l 1
 595 450 l 1
 595 0 l 1
 694.999 0 l 1
 694.999 800 l 1
 595 800 l 1
 595 550 l 1
 143 550 l 1
 143 800 l 1
 43 800 l 1
EndSplineSet
Validated: 524297
EndChar

StartChar: i
Encoding: 105 105 70
Width: 536
GlyphClass: 2
Flags: MW
HStem: 0 100<43 218 43 218 43 318 318 493> 700 100<43 218 43 218 318 493>
VStem: 218 100<0 0 100 700>
LayerCount: 2
Fore
SplineSet
43 800 m 1
 218 800 l 1
 318 800 l 1
 493 800 l 1
 493 700 l 1
 318 700 l 1
 318 100 l 1
 493 100 l 1
 493 0 l 1
 318 0 l 1
 218 0 l 1
 43 0 l 1
 43 100 l 1
 218 100 l 1
 218 700 l 1
 43 700 l 1
 43 800 l 1
EndSplineSet
Validated: 1
EndChar

StartChar: j
Encoding: 106 106 71
Width: 632
GlyphClass: 2
Flags: MW
HStem: -24.3141 100
VStem: 488.845 100.005
LayerCount: 2
Fore
SplineSet
489.376 800.281 m 1
 488.844 601.846 l 1
 488.844 601.625 l 1
 487.279 388.689 l 2
 486.759 318.084 468.641 235.544 429.437 175.562 c 0
 390.232 115.58 335.391 75.6855 240.437 75.6855 c 0
 157.242 75.6855 103.456 106.547 64.3105 154.624 c 1
 -23.002 104.217 l 1
 33.1377 30.248 122.816 -24.3145 240.436 -24.3145 c 0
 366.444 -24.3145 459.434 38.6963 513.124 120.842 c 0
 566.818 202.988 586.648 301.77 587.278 387.938 c 2
 588.85 601.123 l 1
 588.85 601.219 l 1
 588.85 601.344 l 1
 589.38 800 l 1
 489.376 800.281 l 1
EndSplineSet
Validated: 524297
EndChar

StartChar: k
Encoding: 107 107 72
Width: 598
GlyphClass: 2
Flags: W
LayerCount: 2
Fore
SplineSet
426.844 799.844 m 1
 201.969 506.281 l 1
 201.657 506.625 l 1
 201.625 505.844 l 1
 198.188 501.344 l 1
 143 501.344 l 1
 143 798.125 l 1
 43 798.125 l 1
 43 -1.875 l 1
 143 -1.875 l 1
 143 355.938 l 1
 196.812 355.938 l 1
 469.779 0 l 1
 595.777 -0 l 1
 267.812 427.969 l 1
 552.809 799.844 l 1
 426.844 799.844 l 1
EndSplineSet
Validated: 524297
EndChar

StartChar: l
Encoding: 108 108 73
Width: 586
GlyphClass: 2
Flags: W
LayerCount: 2
Fore
SplineSet
43 800 m 1
 43 0 l 1
 542.999 0 l 1
 542.999 100 l 1
 143 100 l 1
 143 800 l 1
 43 800 l 1
EndSplineSet
Validated: 524297
EndChar

StartChar: m
Encoding: 109 109 74
Width: 784
GlyphClass: 2
Flags: MW
HStem: 780 21G 780 21G
VStem: 43 100.531 642.688 100.531
LayerCount: 2
Fore
SplineSet
642.688 800 m 1xb0
 743.22 800 l 1
 743.22 2.15625 l 1
 642.688 2.15625 l 1
 642.688 559.156 l 1
 449.156 156.281 l 1
 448.219 156.281 l 1
 449.25 154.094 l 1
 336.344 154.094 l 1
 143.531 555.438 l 1
 143.531 2.03125 l 1
 43 2.03125 l 1
 43 799.875 l 1
 143.531 799.875 l 1
 143.531 796.156 l 1
 144.031 796.406 l 1
 392.219 274.094 l 1
 641.469 798.594 l 1
 642.688 798.031 l 1
 642.688 800 l 1xb0
EndSplineSet
Validated: 524289
EndChar

StartChar: n
Encoding: 110 110 75
Width: 734
GlyphClass: 2
Flags: W
LayerCount: 2
Fore
SplineSet
43 800 m 1
 43 0 l 1
 143 0 l 1
 143 644.562 l 1
 593 162.406 l 1
 593 0 l 1
 693 0 l 1
 693 25 l 1
 693 142.344 l 1
 693 166.688 l 1
 693 650 l 1
 693 800 l 1
 593 800 l 1
 593 317.844 l 1
 143 800 l 1
 43 800 l 1
EndSplineSet
Validated: 524297
EndChar

StartChar: o
Encoding: 111 111 76
Width: 916
GlyphClass: 2
Flags: MW
HStem: -25 100<367.978 548.023 367.978 575.36> 725 100<367.978 548.023>
VStem: 33.0003 99 784.002 99
LayerCount: 2
Fore
SplineSet
458 825 m 0
 223.279 825 33 634.721 33 400 c 0
 33 165.279 223.279 -25 458 -25 c 0
 692.721 -25 883.002 165.279 883.002 400 c 0
 883.002 634.721 692.721 825 458 825 c 0
458 725 m 0
 638.046 725 784.002 579.492 784.002 400 c 0
 784.002 220.508 638.046 75 458 75 c 0
 277.955 75 132 220.508 132 400 c 0
 132 579.492 277.955 725 458 725 c 0
EndSplineSet
Validated: 524297
EndChar

StartChar: p
Encoding: 112 112 77
Width: 777
GlyphClass: 2
Flags: MW
HStem: 149.875 100.156 700.906 99.125
VStem: 637.845 100.31
LayerCount: 2
Fore
SplineSet
340.969 802.062 m 2
 340.969 802.062 171.178 802.062 67.0625 800.031 c 1
 67.0625 800 l 1
 43 800 l 1
 43 0 l 1
 143 0 l 1
 143 149.875 l 1
 343 149.875 l 2
 425.071 149.875 519.455 166.29 598.469 215.969 c 0
 677.483 265.646 738.153 354.394 738.153 475.969 c 0
 738.153 597.698 676.845 686.521 597.375 736.125 c 0
 517.909 785.729 423.04 802.062 340.969 802.062 c 2
340.969 701.906 m 2
 408.896 701.906 487.736 686.404 544.252 651.127 c 0
 600.768 615.849 637.847 566.74 637.847 475.969 c 0
 637.847 385.043 601.02 335.857 545.031 300.656 c 0
 489.045 265.455 410.929 250.031 343 250.031 c 2
 143 250.031 l 1
 143 700.906 l 1
 237.119 701.871 340.969 701.906 340.969 701.906 c 2
EndSplineSet
Validated: 524297
EndChar

StartChar: q
Encoding: 113 113 78
Width: 932
GlyphClass: 2
Flags: MW
HStem: -27 100 723 100<374.254 553.747>
VStem: 39 100 789 100<353.127 487.747>
LayerCount: 2
Fore
SplineSet
464 823 m 0
 698.721 823 889 632.721 889 398 c 0
 889 280.64 841.441 174.379 764.532 97.4688 c 1
 864 -2 l 1
 722.562 -2 l 1
 685.407 35.1562 l 1
 620.925 -4.27441 545.116 -27 464 -27 c 0
 229.279 -27 39 163.279 39 398 c 0
 39 632.721 229.279 823 464 823 c 0
464 723 m 0
 284.508 723 139.001 577.491 139.001 397.998 c 0
 139.001 218.506 284.509 72.998 464.001 72.998 c 0
 517.288 72.998 567.592 85.8301 611.97 108.561 c 1
 522.562 197.999 l 1
 664 197.999 l 1
 693.812 168.188 l 1
 752.626 227.001 789 308.254 789 398 c 0
 789 577.493 643.493 723 464 723 c 0
EndSplineSet
Validated: 524289
EndChar

StartChar: r
Encoding: 114 114 79
Width: 744
GlyphClass: 2
Flags: MW
HStem: 698.875 100.031
VStem: 639.876 100.186
LayerCount: 2
Fore
SplineSet
343.001 800.094 m 2
 343.001 800.094 224.495 800.09 124.717 798.902 c 1
 42.998 798.902 l 1
 42.998 -0.00390625 l 1
 142.998 -0.00390625 l 1
 142.998 123.527 l 1
 343.341 124.902 l 2
 354.918 124.981 366.745 125.437 378.717 126.277 c 1
 506.091 -1.09766 l 1
 647.529 -1.09766 l 1
 497.904 148.527 l 1
 533.388 159.754 568.122 175.447 600.25 196.56 c 0
 679.354 248.542 740.062 338.737 740.062 460.469 c 0
 740.062 582.198 679.69 673.251 600.72 726.469 c 0
 521.747 779.686 426.576 800.094 343.001 800.094 c 2
342.998 699.901 m 2
 409.423 699.901 487.707 681.786 544.718 643.369 c 0
 601.727 604.952 639.873 551.234 639.873 460.464 c 0
 639.873 369.691 602.096 317.685 545.217 280.307 c 0
 488.336 242.931 409.792 225.548 342.654 225.089 c 2
 142.998 223.714 l 1
 142.998 698.87 l 1
 237.651 699.856 342.998 699.901 342.998 699.901 c 2
EndSplineSet
Validated: 524297
EndChar

StartChar: s
Encoding: 115 115 80
Width: 758
GlyphClass: 2
Flags: MW
HStem: -23 100<306.685 410.999 306.685 418.72> 352 100 727 100<334.728 419.275>
VStem: 41.5312 99.9998 616.531 100
CounterMasks: 1 e0
LayerCount: 2
Fore
SplineSet
367.531 827 m 0
 488.055 827 576.703 795.708 635.037 743.03 c 0
 662.176 718.523 681.9 689.904 695.256 659.594 c 1
 597.85 631.969 l 1
 590.366 645.14 580.544 657.518 568.036 668.812 c 0
 532.371 701.02 471.014 727 367.536 727 c 0
 301.92 727 242.595 707.079 202.192 677.906 c 0
 161.79 648.734 141.535 613.367 141.535 577 c 0
 141.535 527.833 154.139 506.973 191.035 486.219 c 0
 227.933 465.465 295.702 452 391.535 452 c 1
 391.535 451.75 l 1
 483.954 449.949 558.071 437.574 616.035 404.969 c 0
 679.139 369.473 716.534 302.833 716.534 227 c 0
 716.534 155.672 679.864 88.8623 618.034 44.8438 c 0
 556.205 0.825195 470.905 -23 366.534 -23 c 0
 206.471 -23 89.3535 51.6924 41.0029 149.344 c 1
 139.253 177.25 l 1
 173.346 123.014 246.835 77 366.534 77 c 0
 455.464 77 520.188 97.9453 560.033 126.312 c 0
 599.879 154.68 616.533 187.871 616.533 227 c 0
 616.533 276.167 603.93 297.058 567.033 317.812 c 0
 530.137 338.566 462.366 351.999 366.532 351.999 c 1
 366.532 352.249 l 1
 274.114 354.055 199.997 366.456 142.032 399.062 c 0
 78.9287 434.558 41.5322 501.167 41.5322 577 c 0
 41.5322 651.09 83.7783 715.755 143.626 758.969 c 0
 203.474 802.182 282.148 827 367.531 827 c 0
EndSplineSet
Validated: 524289
EndChar

StartChar: t
Encoding: 116 116 81
Width: 625
GlyphClass: 2
Flags: W
LayerCount: 2
Fore
SplineSet
10 800 m 1
 10 700 l 1
 260 700 l 1
 260 0 l 1
 360 0 l 1
 360 700 l 1
 610 700 l 1
 610 800 l 1
 360 800 l 1
 260 800 l 1
 10 800 l 1
EndSplineSet
Validated: 9
EndChar

StartChar: u
Encoding: 117 117 82
Width: 785
GlyphClass: 2
Flags: MW
HStem: -24.0028 100.003
VStem: 41.9549 100 641.33 99.998
LayerCount: 2
Fore
SplineSet
41.9541 801.469 m 1
 39.8066 691.428 41.9541 389.227 41.9541 388.653 c 2
 41.9541 388.338 l 2
 42.0039 301.509 63.124 202.604 118.048 120.682 c 0
 173.035 38.6631 266.883 -24.0068 392.891 -24.0068 c 0
 518.899 -24.0068 612.013 39.0039 665.704 121.15 c 0
 719.397 203.298 739.129 302.171 739.769 388.339 c 2
 741.327 601.464 l 1
 741.327 601.619 l 1
 741.957 800.369 l 1
 641.954 800.686 l 1
 641.329 602.246 l 1
 641.329 601.938 l 1
 639.768 388.969 l 2
 639.245 318.364 621.157 235.824 581.954 175.843 c 0
 542.75 115.861 487.845 75.9971 392.891 75.9971 c 0
 297.938 75.9971 241.47 116.358 201.173 176.467 c 0
 160.875 236.574 141.954 318.781 141.954 388.655 c 2
 141.954 388.812 l 1
 141.954 388.967 l 1
 141.954 388.967 139.901 694.354 141.954 799.592 c 1
 41.9541 801.469 l 1
EndSplineSet
Validated: 524329
EndChar

StartChar: v
Encoding: 118 118 83
Width: 497
GlyphClass: 2
Flags: MW
HStem: 0 21G<196.5 197.25 196.5 196.5 197.25 299.25 299.25 300> 780 20G<8 110.75 110.75 110.75 385.782 488.532 488.532 488.532> 780 20G<8 110.75 110.75 110.75 385.782 488.532 488.532 488.532>
LayerCount: 2
Fore
SplineSet
8 800 m 1xc0
 110.75 800 l 1
 248.25 218.75 l 1
 385.782 800 l 1
 488.532 800 l 1
 299.625 1.59375 l 1
 300 0 l 1
 299.25 0 l 1
 197.25 0 l 1
 196.5 0 l 1
 196.875 1.59375 l 1
 8 800 l 1xc0
EndSplineSet
Validated: 524289
EndChar

StartChar: w
Encoding: 119 119 84
Width: 717
GlyphClass: 2
Flags: MW
HStem: -0.5 21G<73.125 179.937 73.125 73.125 535.188 642.03 535.188 535.188> 780 20G<10 110.312 110.312 110.312 606.438 706.75 706.75 706.75> 780 20G<10 110.312 110.312 110.312 606.438 706.75 706.75 706.75>
LayerCount: 2
Fore
SplineSet
10 800 m 1xc0
 110.312 800 l 1
 156.062 220.281 l 1
 315.375 644.375 l 1
 366.594 644.375 l 1
 399.78 644.375 l 1
 560.405 216.75 l 1
 606.438 800 l 1
 706.75 800 l 1
 643.625 0 l 1
 641.844 0 l 1
 642.03 -0.5 l 1
 535.188 -0.5 l 1
 357.562 472.344 l 1
 179.937 -0.5 l 1
 73.125 -0.5 l 1
 73.3115 0 l 1
 73.125 0 l 1
 10 800 l 1xc0
EndSplineSet
Validated: 524289
EndChar

StartChar: x
Encoding: 120 120 85
Width: 601
GlyphClass: 2
Flags: MW
HStem: 780 20G<8 126.125 126.125 126.125 474.812 592.906 592.906 592.906> 780 20G<8 126.125 126.125 126.125 474.812 592.906 592.906 592.906>
LayerCount: 2
Fore
SplineSet
8 800 m 1x80
 126.125 800 l 1
 592.906 -2.53125 l 1
 474.812 -2.53125 l 1
 8 800 l 1x80
8 -2.53125 m 1
 474.812 800 l 1
 592.906 800 l 1
 126.125 -2.53125 l 1
 8 -2.53125 l 1
EndSplineSet
Validated: 524293
EndChar

StartChar: y
Encoding: 121 121 86
Width: 607
GlyphClass: 2
Flags: MW
HStem: 780 20G<13 129.124 129.124 129.124 477.812 593.905 593.905 593.905> 780 20G<13 129.124 129.124 129.124 477.812 593.905 593.905 593.905>
VStem: 253.469 100
LayerCount: 2
Fore
SplineSet
13 800 m 1xa0
 129.124 800 l 1
 302.688 501.594 l 1
 304.249 501.594 l 1
 477.812 800 l 1
 593.905 800 l 1
 353.499 384.844 l 1
 353.469 384.844 l 1
 353.469 -1.25 l 1
 253.469 -1.25 l 1
 253.469 384.344 l 1
 252.407 384.344 l 1
 13 800 l 1xa0
EndSplineSet
Validated: 524289
EndChar

StartChar: z
Encoding: 122 122 87
Width: 516
GlyphClass: 2
Flags: MW
HStem: -0.1875 99.5938 699.625 100<6 385.782 6 450.219>
LayerCount: 2
Fore
SplineSet
450.469 800 m 1
 506.251 799.999 l 1
 506.251 701.405 l 1
 505.626 700.438 l 1
 505.626 699.624 l 1
 505.094 699.624 l 1
 116.812 99.4053 l 1
 507.626 99.4053 l 1
 507.626 -0.188477 l 1
 6.09375 -0.188477 l 1
 6.09375 99.4053 l 1
 6.9375 99.4053 l 1
 6.9375 111.938 l 1
 385.782 699.625 l 1
 6 699.625 l 1
 6 799.625 l 1
 450.219 799.625 l 1
 450.469 800 l 1
EndSplineSet
Validated: 524289
EndChar

StartChar: braceleft
Encoding: 123 123 88
Width: 262
GlyphClass: 2
Flags: MW
VStem: 82 100
LayerCount: 2
Fore
SplineSet
232 800 m 1
 199.361 800 169.85 784.89 149.938 765.582 c 0
 130.024 746.273 117.275 723.395 107.72 700.458 c 0
 88.6045 654.583 82.001 608.322 82.001 574.989 c 0
 82.001 546.001 71.4736 508.194 57.001 482.053 c 0
 47.207 464.361 36.0459 455.935 32.001 452.335 c 1
 32.001 449.991 l 1
 32.001 349.991 l 1
 32.001 347.647 l 1
 36.0459 344.047 47.207 335.62 57.001 317.931 c 0
 71.4736 291.787 82.001 253.981 82.001 224.992 c 0
 82.001 191.66 88.6045 145.399 107.72 99.5244 c 0
 117.275 76.5869 130.024 53.708 149.938 34.3994 c 0
 169.85 15.0908 199.36 -0.00683594 231.999 -0.00683594 c 1
 231.999 99.9932 l 1
 227.137 99.9932 225.397 100.521 219.528 106.213 c 0
 213.659 111.905 206.098 123.401 200.028 137.965 c 0
 187.895 167.09 181.997 208.329 181.997 224.995 c 0
 181.997 275.065 167.523 324.778 144.497 366.371 c 0
 138.146 377.845 131.074 389.346 122.966 399.996 c 1
 131.074 410.646 138.146 422.147 144.497 433.621 c 0
 167.523 475.213 181.997 524.926 181.997 574.996 c 0
 181.997 591.663 187.895 632.902 200.028 662.027 c 0
 206.098 676.592 213.66 688.088 219.529 693.779 c 0
 225.398 699.472 227.138 700 232 700 c 1
 232 800 l 1
EndSplineSet
Validated: 524297
EndChar

StartChar: braceright
Encoding: 125 125 89
Width: 262
GlyphClass: 2
Flags: MW
HStem: -0.00050354 21G 780 20G<30 46.3188>
VStem: 80 100
LayerCount: 2
Fore
SplineSet
30 800 m 1
 62.6377 800 92.1514 784.89 112.062 765.582 c 0
 131.976 746.273 144.726 723.395 154.281 700.458 c 0
 173.396 654.583 180 608.322 180 574.989 c 0
 180 546.001 190.526 508.194 205 482.053 c 0
 214.794 464.361 225.955 455.935 230 452.335 c 1
 230 449.991 l 1
 230 349.991 l 1
 230 347.647 l 1
 225.955 344.047 214.794 335.62 205 317.931 c 0
 190.526 291.787 180 253.981 180 224.992 c 0
 180 191.66 173.396 145.399 154.28 99.5244 c 0
 144.725 76.5869 131.975 53.708 112.062 34.3994 c 0
 92.1504 15.0908 62.6387 -0.00683594 30.001 -0.00683594 c 1
 30.001 99.9932 l 1
 34.8623 99.9932 36.6006 100.521 42.4707 106.213 c 0
 48.3398 111.905 55.9023 123.401 61.9707 137.965 c 0
 74.1055 167.09 80.002 208.329 80.002 224.995 c 0
 80.002 275.065 94.4746 324.778 117.502 366.371 c 0
 123.854 377.845 130.925 389.346 139.033 399.996 c 1
 130.925 410.646 123.854 422.147 117.502 433.621 c 0
 94.4746 475.213 80.002 524.926 80.002 574.996 c 0
 80.002 591.663 74.1055 632.902 61.9707 662.027 c 0
 55.9023 676.592 48.3389 688.088 42.4697 693.779 c 0
 36.5996 699.472 34.8613 700 30 700 c 1
 30 800 l 1
EndSplineSet
Validated: 524289
EndChar

StartChar: asciitilde
Encoding: 126 126 90
Width: 538
GlyphClass: 2
Flags: MW
HStem: 850.444 99.5557
LayerCount: 2
Fore
SplineSet
59 850.444 m 1
 59 950 l 1
 509 950 l 1
 509 850.444 l 1
 59 850.444 l 1
EndSplineSet
Validated: 524289
EndChar

StartChar: copyright
Encoding: 169 169 91
Width: 905
GlyphClass: 2
Flags: MW
HStem: -23.9688 99.875 125 100 575 100 725.125 99.875
VStem: 28 98.875<310.895 490.169 310.895 517.75> 189.969 100 778.094 98.875
LayerCount: 2
Fore
SplineSet
452.469 825 m 0
 686.904 825 876.969 634.969 876.969 400.531 c 0
 876.969 166.098 686.904 -23.9678 452.469 -23.9678 c 0
 218.034 -23.9678 28 166.098 28 400.531 c 0
 28 634.968 218.034 825 452.469 825 c 0
452.469 725.126 m 0
 272.643 725.126 126.875 579.808 126.875 400.531 c 0
 126.875 221.258 272.643 75.9062 452.469 75.9062 c 0
 632.296 75.9062 778.094 221.258 778.094 400.531 c 0
 778.094 579.808 632.296 725.126 452.469 725.126 c 0
452.469 675.001 m 0
 501.894 675.001 547.926 660.617 587.219 635.813 c 1
 537.719 549.189 l 1
 512.828 565.608 483.576 575.001 452.469 575.001 c 0
 363.72 575.001 289.969 498.744 289.969 400.001 c 0
 289.969 301.259 363.72 225.001 452.469 225.001 c 0
 483.576 225.001 512.828 234.393 537.719 250.812 c 1
 587.219 164.188 l 1
 547.926 139.385 501.894 125.001 452.469 125.001 c 0
 306.497 125.001 189.969 250.217 189.969 400.001 c 0
 189.969 549.786 306.497 675.001 452.469 675.001 c 0
EndSplineSet
Validated: 524289
EndChar

StartChar: acute
Encoding: 180 180 92
Width: 484
GlyphClass: 2
Flags: MW
HStem: 840.001 149.999
VStem: 217 112.374
LayerCount: 2
Fore
SplineSet
329.374 990 m 1
 295.281 840.001 l 1
 217 840.001 l 1
 254.5 990 l 1
 329.374 990 l 1
EndSplineSet
Validated: 524289
EndChar

StartChar: Agrave
Encoding: 192 192 93
Width: 620
GlyphClass: 2
Flags: MW
HStem: 885 150<270.858 311.641 236.767 349.141 236.767 349.141>
LayerCount: 2
Fore
SplineSet
236.767 1035 m 1
 270.858 885 l 1
 349.141 885 l 1
 311.641 1035 l 1
 236.767 1035 l 1
209.999 800 m 1
 9.99902 0 l 1
 109.999 0 l 1
 134.999 100 l 1
 484.999 100 l 1
 509.999 0 l 1
 609.999 0 l 1
 409.999 800 l 1
 209.999 800 l 1
279.311 700 m 1
 340.687 700 l 1
 454.311 200 l 1
 165.687 200 l 1
 279.311 700 l 1
EndSplineSet
Validated: 524297
EndChar

StartChar: Aacute
Encoding: 193 193 94
Width: 620
GlyphClass: 2
Flags: W
LayerCount: 2
Fore
SplineSet
353.233 1035 m 1
 319.142 885 l 1
 240.859 885 l 1
 278.359 1035 l 1
 353.233 1035 l 1
210.001 800 m 1
 10.001 0 l 1
 110.001 0 l 1
 135.001 100 l 1
 485.001 100 l 1
 510.001 0 l 1
 610.001 0 l 1
 410.001 800 l 1
 210.001 800 l 1
279.312 700 m 1
 340.688 700 l 1
 454.312 200 l 1
 165.688 200 l 1
 279.312 700 l 1
EndSplineSet
Validated: 524297
EndChar

StartChar: Egrave
Encoding: 200 200 95
Width: 664
GlyphClass: 2
Flags: MW
HStem: 885 150<303.861 344.643 269.769 382.143 269.769 382.143>
LayerCount: 2
Fore
SplineSet
269.769 1035 m 1
 303.861 885 l 1
 382.143 885 l 1
 344.643 1035 l 1
 269.769 1035 l 1
42.999 800 m 1
 42.999 700 l 1
 42.999 550 l 1
 42.999 450 l 1
 42.999 100 l 1
 42.999 0 l 1
 643.004 0 l 1
 643.004 100 l 1
 142.999 100 l 1
 142.999 450 l 1
 542.999 450 l 1
 542.999 550 l 1
 142.999 550 l 1
 142.999 700 l 1
 643.004 700 l 1
 643.004 800 l 1
 142.999 800 l 1
 42.999 800 l 1
EndSplineSet
Validated: 524297
EndChar

StartChar: Eacute
Encoding: 201 201 96
Width: 664
GlyphClass: 2
Flags: MW
HStem: 885 149.999
VStem: 303.862 112.374
LayerCount: 2
Fore
SplineSet
416.236 1035 m 1
 382.144 885 l 1
 303.861 885 l 1
 341.361 1035 l 1
 416.236 1035 l 1
43.001 800 m 1
 43.001 700 l 1
 43.001 550 l 1
 43.001 450 l 1
 43.001 100 l 1
 43.001 0 l 1
 643.006 0 l 1
 643.006 100 l 1
 143.001 100 l 1
 143.001 450 l 1
 543.001 450 l 1
 543.001 550 l 1
 143.001 550 l 1
 143.001 700 l 1
 643.006 700 l 1
 643.006 800 l 1
 143.001 800 l 1
 43.001 800 l 1
EndSplineSet
Validated: 524297
EndChar

StartChar: Igrave
Encoding: 204 204 97
Width: 163
GlyphClass: 2
Flags: MW
HStem: 0 21<20.2334 120.233 20.2334 20.2334> 780 20<20.2334 120.233 120.233 120.233> 885 150<31.0928 71.874 -3 109.374 -3 109.374>
VStem: 20.2334 100<0 800 0 800>
LayerCount: 2
Fore
SplineSet
-3 1035 m 1
 31.0928 885 l 1
 109.374 885 l 1
 71.874 1035 l 1
 -3 1035 l 1
20.2334 800 m 1
 120.233 800 l 1
 120.233 0 l 1
 20.2334 0 l 1
 20.2334 800 l 1
EndSplineSet
Validated: 524297
EndChar

StartChar: Iacute
Encoding: 205 205 98
Width: 163
GlyphClass: 2
Flags: MW
HStem: 0 21<43 143 43 43> 780 20<43 143 143 143> 885 149.999
VStem: 43 100<0 800 0 800> 53.8594 112.374
LayerCount: 2
Fore
SplineSet
166.233 1035 m 1x28
 132.141 885 l 1
 53.8594 885 l 1
 91.3594 1035 l 1
 166.233 1035 l 1x28
43 800 m 1xd0
 143 800 l 1
 143 0 l 1
 43 0 l 1
 43 800 l 1xd0
EndSplineSet
Validated: 524289
EndChar

StartChar: Ntilde
Encoding: 209 209 99
Width: 736
GlyphClass: 2
Flags: MW
HStem: 0 21G<43 143 43 43 593 693 593 593> 700.438 99.5625
VStem: 43 100<0 652.562 0 800> 593 100<0 25 25 142.344 142.344 166.688 166.688 170.406 170.406 170.406 317.844 652>
LayerCount: 2
Fore
SplineSet
43 800 m 1
 143 800 l 1
 593 317.844 l 1
 593 652 l 1
 693 652 l 1
 693 166.688 l 1
 693 142.344 l 1
 693 25 l 1
 693 0 l 1
 593 0 l 1
 593 170.406 l 1
 143 652.562 l 1
 143 0 l 1
 43 0 l 1
 43 800 l 1
300.438 800 m 1
 693 800 l 1
 693 700.438 l 1
 300.438 700.438 l 1
 300.438 800 l 1
EndSplineSet
Validated: 524289
EndChar

StartChar: Ograve
Encoding: 210 210 100
Width: 920
GlyphClass: 2
Flags: MW
HStem: -25 100<369.977 550.022 369.977 577.36> 725 100<369.977 550.022> 885 150<420.858 461.641 386.767 499.141 386.767 499.141>
VStem: 35.0003 99 786.002 99
LayerCount: 2
Fore
SplineSet
386.767 1035 m 1
 420.858 885 l 1
 499.141 885 l 1
 461.641 1035 l 1
 386.767 1035 l 1
459.999 825 m 0
 225.278 825 34.999 634.721 34.999 400 c 0
 34.999 165.279 225.278 -25 459.999 -25 c 0
 694.721 -25 885.001 165.279 885.001 400 c 0
 885.001 634.721 694.721 825 459.999 825 c 0
459.999 725 m 0
 640.045 725 786.001 579.492 786.001 400 c 0
 786.001 220.508 640.045 75 459.999 75 c 0
 279.954 75 133.999 220.508 133.999 400 c 0
 133.999 579.492 279.954 725 459.999 725 c 0
EndSplineSet
Validated: 524297
EndChar

StartChar: Oacute
Encoding: 211 211 101
Width: 920
GlyphClass: 2
Flags: MW
HStem: -25 100<369.979 550.024 369.979 577.362> 725 100<369.979 550.024> 885 149.999
VStem: 35.0003 99 420.859 112.374 786.002 99
LayerCount: 2
Fore
SplineSet
533.233 1035 m 1
 499.142 885 l 1
 420.859 885 l 1
 458.359 1035 l 1
 533.233 1035 l 1
460.001 825 m 0
 225.28 825 35.001 634.721 35.001 400 c 0
 35.001 165.279 225.28 -25 460.001 -25 c 0
 694.723 -25 885.003 165.279 885.003 400 c 0
 885.003 634.721 694.723 825 460.001 825 c 0
460.001 725 m 0
 640.047 725 786.003 579.492 786.003 400 c 0
 786.003 220.508 640.047 75 460.001 75 c 0
 279.956 75 134.001 220.508 134.001 400 c 0
 134.001 579.492 279.956 725 460.001 725 c 0
EndSplineSet
Validated: 524297
EndChar

StartChar: Ugrave
Encoding: 217 217 102
Width: 785
GlyphClass: 2
Flags: MW
HStem: -24.0028 100.003
VStem: 42.9544 100 642.329 99.998
LayerCount: 2
Fore
SplineSet
339.721 1035 m 1
 373.812 885 l 1
 452.095 885 l 1
 414.595 1035 l 1
 339.721 1035 l 1
42.9531 801.469 m 1
 40.8066 691.428 42.9531 389.227 42.9531 388.654 c 2
 42.9531 388.339 l 2
 43.0039 301.51 64.124 202.605 119.048 120.683 c 0
 174.034 38.665 267.883 -24.0049 393.891 -24.0049 c 0
 519.899 -24.0049 613.013 39.0059 666.703 121.152 c 0
 720.396 203.299 740.128 302.172 740.768 388.34 c 2
 742.326 601.465 l 1
 742.326 601.62 l 1
 742.957 800.37 l 1
 642.953 800.686 l 1
 642.328 602.247 l 1
 642.328 601.938 l 1
 640.767 388.969 l 2
 640.244 318.364 622.156 235.824 582.953 175.843 c 0
 543.75 115.862 488.845 75.998 393.891 75.998 c 0
 298.937 75.998 242.47 116.36 202.173 176.468 c 0
 161.875 236.575 142.953 318.782 142.953 388.656 c 2
 142.953 388.812 l 1
 142.953 388.967 l 1
 142.953 388.967 140.9 694.355 142.953 799.592 c 1
 42.9531 801.469 l 1
EndSplineSet
Validated: 524329
EndChar

StartChar: Uacute
Encoding: 218 218 103
Width: 785
GlyphClass: 2
Flags: MW
HStem: -24.0028 100.003
VStem: 42.9544 100 642.329 99.998
LayerCount: 2
Fore
SplineSet
456.188 1035 m 1
 422.095 885 l 1
 343.812 885 l 1
 381.312 1035 l 1
 456.188 1035 l 1
42.9541 801.469 m 1
 40.8076 691.428 42.9541 389.227 42.9541 388.654 c 2
 42.9541 388.339 l 2
 43.0049 301.51 64.125 202.605 119.049 120.683 c 0
 174.035 38.665 267.884 -24.0049 393.892 -24.0049 c 0
 519.9 -24.0049 613.014 39.0059 666.704 121.152 c 0
 720.397 203.299 740.129 302.172 740.769 388.34 c 2
 742.327 601.465 l 1
 742.327 601.62 l 1
 742.958 800.37 l 1
 642.954 800.686 l 1
 642.329 602.247 l 1
 642.329 601.938 l 1
 640.768 388.969 l 2
 640.245 318.364 622.157 235.824 582.954 175.843 c 0
 543.751 115.862 488.846 75.998 393.892 75.998 c 0
 298.938 75.998 242.471 116.36 202.174 176.468 c 0
 161.876 236.575 142.954 318.782 142.954 388.656 c 2
 142.954 388.812 l 1
 142.954 388.967 l 1
 142.954 388.967 140.901 694.355 142.954 799.592 c 1
 42.9541 801.469 l 1
EndSplineSet
Validated: 524329
EndChar

StartChar: agrave
Encoding: 224 224 104
Width: 660
GlyphClass: 2
Flags: MW
HStem: 885 150<286.859 327.642 252.768 365.142 252.768 365.142>
LayerCount: 2
Fore
SplineSet
226 800 m 1
 26 0 l 1
 126 0 l 1
 151 100 l 1
 501 100 l 1
 526 0 l 1
 626 0 l 1
 426 800 l 1
 226 800 l 1
295.312 700 m 1
 356.688 700 l 1
 470.312 200 l 1
 181.688 200 l 1
 295.312 700 l 1
252.768 1035 m 1
 286.859 885 l 1
 365.142 885 l 1
 327.642 1035 l 1
 252.768 1035 l 1
EndSplineSet
Validated: 524297
EndChar

StartChar: aacute
Encoding: 225 225 105
Width: 660
GlyphClass: 2
Flags: W
LayerCount: 2
Fore
SplineSet
369.233 1035 m 1
 335.142 885 l 1
 256.859 885 l 1
 294.359 1035 l 1
 369.233 1035 l 1
226.001 800 m 1
 26.001 0 l 1
 126.001 0 l 1
 151.001 100 l 1
 501.001 100 l 1
 526.001 0 l 1
 626.001 0 l 1
 426.001 800 l 1
 226.001 800 l 1
295.312 700 m 1
 356.688 700 l 1
 470.312 200 l 1
 181.688 200 l 1
 295.312 700 l 1
EndSplineSet
Validated: 524297
EndChar

StartChar: egrave
Encoding: 232 232 106
Width: 665
GlyphClass: 2
Flags: MW
HStem: 885 150<294.861 335.643 260.769 373.143 260.769 373.143>
LayerCount: 2
Fore
SplineSet
34 800 m 1
 34 700 l 1
 34 550 l 1
 34 450 l 1
 34 100 l 1
 34 0 l 1
 634.005 0 l 1
 634.005 100 l 1
 134 100 l 1
 134 450 l 1
 534 450 l 1
 534 550 l 1
 134 550 l 1
 134 700 l 1
 634.005 700 l 1
 634.005 800 l 1
 134 800 l 1
 34 800 l 1
260.769 1035 m 1
 294.861 885 l 1
 373.143 885 l 1
 335.643 1035 l 1
 260.769 1035 l 1
EndSplineSet
Validated: 524297
EndChar

StartChar: eacute
Encoding: 233 233 107
Width: 665
GlyphClass: 2
Flags: MW
HStem: 885 149.999
VStem: 294.862 112.374
LayerCount: 2
Fore
SplineSet
34 800 m 1
 34 700 l 1
 34 550 l 1
 34 450 l 1
 34 100 l 1
 34 0 l 1
 634.005 0 l 1
 634.005 100 l 1
 134 100 l 1
 134 450 l 1
 534 450 l 1
 534 550 l 1
 134 550 l 1
 134 700 l 1
 634.005 700 l 1
 634.005 800 l 1
 134 800 l 1
 34 800 l 1
407.236 1035 m 1
 373.144 885 l 1
 294.861 885 l 1
 332.361 1035 l 1
 407.236 1035 l 1
EndSplineSet
Validated: 524297
EndChar

StartChar: igrave
Encoding: 236 236 108
Width: 476
GlyphClass: 2
Flags: MW
HStem: 0 100<-17.001 157.999 -17.001 157.999 -17.001 257.999 257.999 432.999> 700 100<-17.001 157.999 -17.001 157.999 257.999 432.999> 885 150<168.858 209.641 134.767 247.141 134.767 247.141>
VStem: 158 100
LayerCount: 2
Fore
SplineSet
134.767 1035 m 1
 168.858 885 l 1
 247.141 885 l 1
 209.641 1035 l 1
 134.767 1035 l 1
-17.001 800 m 1
 157.999 800 l 1
 257.999 800 l 1
 432.999 800 l 1
 432.999 700 l 1
 257.999 700 l 1
 257.999 100 l 1
 432.999 100 l 1
 432.999 0 l 1
 257.999 0 l 1
 157.999 0 l 1
 -17.001 0 l 1
 -17.001 100 l 1
 157.999 100 l 1
 157.999 700 l 1
 -17.001 700 l 1
 -17.001 800 l 1
EndSplineSet
Validated: 524297
EndChar

StartChar: iacute
Encoding: 237 237 109
Width: 476
GlyphClass: 2
Flags: MW
HStem: 0 100<43.001 218.001 43.001 218.001 43.001 318.001 318.001 493.001> 700 100<43.001 218.001 43.001 218.001 318.001 493.001> 885 149.999
VStem: 218 100 228.859 112.374
LayerCount: 2
Fore
SplineSet
341.233 1035 m 1x28
 307.142 885 l 1
 228.859 885 l 1
 266.359 1035 l 1
 341.233 1035 l 1x28
43.001 800 m 1xd0
 218.001 800 l 1
 318.001 800 l 1
 493.001 800 l 1
 493.001 700 l 1
 318.001 700 l 1
 318.001 100 l 1
 493.001 100 l 1
 493.001 0 l 1
 318.001 0 l 1
 218.001 0 l 1
 43.001 0 l 1
 43.001 100 l 1
 218.001 100 l 1
 218.001 700 l 1
 43.001 700 l 1
 43.001 800 l 1xd0
EndSplineSet
Validated: 524289
EndChar

StartChar: ntilde
Encoding: 241 241 110
Width: 734
GlyphClass: 2
Flags: MW
HStem: 0 21G<43 143 43 43 593 693 593 593> 700.438 99.5625
VStem: 43 100<0 652.562 0 800> 593 100<0 25 25 142.344 142.344 166.688 166.688 170.406 170.406 170.406 317.844 652>
LayerCount: 2
Fore
SplineSet
43 800 m 1
 143 800 l 1
 593 317.844 l 1
 593 652 l 1
 693 652 l 1
 693 166.688 l 1
 693 142.344 l 1
 693 25 l 1
 693 0 l 1
 593 0 l 1
 593 170.406 l 1
 143 652.562 l 1
 143 0 l 1
 43 0 l 1
 43 800 l 1
300.438 800 m 1
 693 800 l 1
 693 700.438 l 1
 300.438 700.438 l 1
 300.438 800 l 1
EndSplineSet
Validated: 524289
EndChar

StartChar: ograve
Encoding: 242 242 111
Width: 916
GlyphClass: 2
Flags: MW
HStem: -25 100<367.978 548.023 367.978 575.361> 725 100<367.978 548.023> 885 150<418.858 459.641 384.767 497.141 384.767 497.141>
VStem: 33.0003 99 784.002 99
LayerCount: 2
Fore
SplineSet
458 825 m 0
 223.279 825 33 634.721 33 400 c 0
 33 165.279 223.279 -25 458 -25 c 0
 692.722 -25 883.002 165.279 883.002 400 c 0
 883.002 634.721 692.722 825 458 825 c 0
458 725 m 0
 638.046 725 784.002 579.492 784.002 400 c 0
 784.002 220.508 638.046 75 458 75 c 0
 277.955 75 132 220.508 132 400 c 0
 132 579.492 277.955 725 458 725 c 0
384.767 1035 m 1
 418.858 885 l 1
 497.141 885 l 1
 459.641 1035 l 1
 384.767 1035 l 1
EndSplineSet
Validated: 524297
EndChar

StartChar: oacute
Encoding: 243 243 112
Width: 916
GlyphClass: 2
Flags: MW
HStem: -25 100<367.978 548.023 367.978 575.361> 725 100<367.978 548.023> 885 149.999
VStem: 33.0003 99 418.859 112.374 784.002 99<310.254 489.746>
LayerCount: 2
Fore
SplineSet
458 825 m 0
 223.279 825 33 634.721 33 400 c 0
 33 165.279 223.279 -25 458 -25 c 0
 692.722 -25 883.002 165.279 883.002 400 c 0
 883.002 634.721 692.722 825 458 825 c 0
458 725 m 0
 638.046 725 784.002 579.492 784.002 400 c 0
 784.002 220.508 638.046 75 458 75 c 0
 277.955 75 132 220.508 132 400 c 0
 132 579.492 277.955 725 458 725 c 0
531.233 1035 m 1
 497.142 885 l 1
 418.859 885 l 1
 456.359 1035 l 1
 531.233 1035 l 1
EndSplineSet
Validated: 524297
EndChar

StartChar: ugrave
Encoding: 249 249 113
Width: 785
GlyphClass: 2
Flags: MW
HStem: -24.0028 100.003
VStem: 41.9544 100 641.329 99.998
LayerCount: 2
Fore
SplineSet
338.721 1035 m 1
 372.812 885 l 1
 451.095 885 l 1
 413.595 1035 l 1
 338.721 1035 l 1
41.9531 801.469 m 1
 39.8066 691.428 41.9531 389.227 41.9531 388.654 c 2
 41.9531 388.339 l 2
 42.0039 301.51 63.124 202.605 118.048 120.683 c 0
 173.034 38.665 266.883 -24.0049 392.891 -24.0049 c 0
 518.899 -24.0049 612.013 39.0059 665.703 121.152 c 0
 719.396 203.299 739.128 302.172 739.768 388.34 c 2
 741.326 601.465 l 1
 741.326 601.62 l 1
 741.957 800.37 l 1
 641.953 800.686 l 1
 641.328 602.247 l 1
 641.328 601.938 l 1
 639.767 388.969 l 2
 639.244 318.364 621.156 235.824 581.953 175.843 c 0
 542.75 115.862 487.845 75.998 392.891 75.998 c 0
 297.937 75.998 241.47 116.36 201.173 176.468 c 0
 160.875 236.575 141.953 318.782 141.953 388.656 c 2
 141.953 388.812 l 1
 141.953 388.967 l 1
 141.953 388.967 139.9 694.355 141.953 799.592 c 1
 41.9531 801.469 l 1
EndSplineSet
Validated: 524329
EndChar

StartChar: uacute
Encoding: 250 250 114
Width: 785
GlyphClass: 2
Flags: MW
HStem: -24.0028 100.003
VStem: 41.9544 100 641.329 99.998
LayerCount: 2
Fore
SplineSet
455.188 1035 m 1
 421.095 885 l 1
 342.812 885 l 1
 380.312 1035 l 1
 455.188 1035 l 1
41.9541 801.469 m 1
 39.8076 691.428 41.9541 389.227 41.9541 388.654 c 2
 41.9541 388.339 l 2
 42.0049 301.51 63.125 202.605 118.049 120.683 c 0
 173.035 38.665 266.884 -24.0049 392.892 -24.0049 c 0
 518.9 -24.0049 612.014 39.0059 665.704 121.152 c 0
 719.397 203.299 739.129 302.172 739.769 388.34 c 2
 741.327 601.465 l 1
 741.327 601.62 l 1
 741.958 800.37 l 1
 641.954 800.686 l 1
 641.329 602.247 l 1
 641.329 601.938 l 1
 639.768 388.969 l 2
 639.245 318.364 621.157 235.824 581.954 175.843 c 0
 542.751 115.862 487.846 75.998 392.892 75.998 c 0
 297.938 75.998 241.471 116.36 201.174 176.468 c 0
 160.876 236.575 141.954 318.782 141.954 388.656 c 2
 141.954 388.812 l 1
 141.954 388.967 l 1
 141.954 388.967 139.901 694.355 141.954 799.592 c 1
 41.9541 801.469 l 1
EndSplineSet
Validated: 524329
EndChar

StartChar: bar
Encoding: 124 124 115
Width: 186
Flags: W
VStem: 43 100<-70 870>
LayerCount: 2
Fore
SplineSet
43 870 m 1
 143 870 l 1
 143 -70 l 1
 43 -70 l 1
 43 870 l 1
EndSplineSet
Validated: 1
EndChar

StartChar: equal
Encoding: 61 61 116
Width: 578
Flags: W
HStem: 207.842 102.158<39 538.699> 407.842 102.158<39 538.699>
LayerCount: 2
Fore
SplineSet
39 207.842 m 1
 39 310 l 1
 538.699 310 l 1
 538.699 207.842 l 1
 39 207.842 l 1
39 407.842 m 1
 39 510 l 1
 538.699 510 l 1
 538.699 407.842 l 1
 39 407.842 l 1
EndSplineSet
Validated: 524289
EndChar

StartChar: underscore
Encoding: 95 95 117
Width: 538
Flags: W
HStem: 1.44434 99.5557<59 509>
LayerCount: 2
Fore
SplineSet
59 1.44434 m 1
 59 101 l 1
 509 101 l 1
 509 1.44434 l 1
 59 1.44434 l 1
EndSplineSet
Validated: 524289
EndChar

StartChar: dieresis
Encoding: 168 168 120
Width: 339
Flags: W
HStem: 676.5 92<35.2553 112.785 225.255 302.785>
VStem: 28 92.0312<683.746 761.254> 218 92.0312<683.746 761.254>
LayerCount: 2
Fore
SplineSet
264.031 768.5 m 0
 238.623 768.5 218 747.907 218 722.5 c 0
 218 697.093 238.623 676.5 264.031 676.5 c 0
 289.438 676.5 310.031 697.093 310.031 722.5 c 0
 310.031 747.907 289.438 768.5 264.031 768.5 c 0
74.0312 768.5 m 0
 48.623 768.5 28 747.907 28 722.5 c 0
 28 697.093 48.623 676.5 74.0312 676.5 c 0
 99.4385 676.5 120.031 697.093 120.031 722.5 c 0
 120.031 747.907 99.4385 768.5 74.0312 768.5 c 0
EndSplineSet
Validated: 524297
EndChar

StartChar: Eth
Encoding: 208 208 128
Width: 810
Flags: W
HStem: 0 99.998<417.5 502.193> 700.123 100.033<413.406 505.139>
VStem: 670.75 100<280.12 520.654>
LayerCount: 2
Fore
SplineSet
29 357.842 m 1
 398.699 357.842 l 1
 398.699 460 l 1
 29 460 l 1
 29 357.842 l 1
224.971 801.406 m 0
 194.029 801.353 163.486 801.08 137.029 800.562 c 2
 112.998 800.562 l 1
 112.998 -0.46875 l 1
 212.998 -0.46875 l 1
 212.998 0 l 1
 216.279 0 l 1
 418.061 0 l 1
 418.375 0 l 1
 418.656 0 l 1
 599.758 2.11035 770.75 165.199 770.75 403.125 c 0
 770.75 641.458 594.424 799.674 414.125 800.094 c 1
 414.125 800.156 l 1
 413.406 800.156 l 2
 412.479 800.156 317.34 801.573 224.971 801.406 c 0
224.811 701.374 m 0
 316.149 701.524 412.688 700.123 412.688 700.123 c 1
 413.031 700.123 l 1
 413.406 700.123 l 2
 535.533 700.123 670.75 593.263 670.75 403.123 c 0
 670.75 212.258 539.053 101.414 417.5 99.998 c 1
 216.281 99.998 l 1
 213 99.998 l 1
 213 701.311 l 1
 216.935 701.311 220.849 701.374 224.811 701.374 c 0
EndSplineSet
Validated: 524325
EndChar

StartChar: germandbls
Encoding: 223 223 129
Width: 1000
VWidth: 0
HStem: -7.1875 100.062<272.775 513.052> 449.749 100<223.375 453.017> 699.749 100<100 449.708>
VStem: 0 100<-101.657 699.749> 471.406 100<569.255 677.542> 602.938 101.062<173.405 367.964>
LayerCount: 2
Fore
SplineSet
370.094 799.999 m 0
 417.877 800.065 437.71 796.521 466.406 784.374 c 0
 515.2 763.721 571.406 709.516 571.406 626.749 c 0
 571.406 585.047 558.373 550.501 539.781 523.78 c 1
 544.877 521.716 550.014 519.502 555.156 517.093 c 0
 623.543 485.055 696.872 411.677 702.562 290.624 c 1
 703.219 290.624 l 1
 703.723 283.181 704 275.566 704 267.78 c 0
 704 187.529 675.694 127.011 637.125 84.3428 c 0
 637.005 84.2041 636.871 84.0752 636.75 83.9375 c 0
 617.855 62.2168 596.675 45.4971 575.594 33.5625 c 0
 549.595 18.8408 523.649 10.1348 502.125 4.96777 c 0
 452.862 -8.14062 413.302 -7.41895 406.438 -7.1875 c 0
 394.199 -7.99902 314.804 -11.4824 221 27.2803 c 1
 221 138.093 l 1
 315.857 84.3516 400.344 92.5625 400.344 92.5625 c 1
 403.656 92.874 l 1
 407 92.749 l 1
 407 92.749 459.609 91.4424 509.688 113.062 c 0
 527.684 120.831 544.919 130.111 559.625 143.438 c 0
 559.751 143.55 559.875 143.666 560 143.78 c 0
 584.433 168.484 602.938 207.264 602.938 275.438 c 0
 602.938 370.307 560.519 406.136 512.719 428.53 c 0
 464.919 450.924 415.156 449.438 415.156 449.438 c 1
 415.156 449.749 l 1
 330.312 449.749 l 1
 325.406 449.749 l 1
 223.375 449.749 l 1
 223.375 549.749 l 1
 325.406 549.749 l 1
 329.25 549.749 l 2
 346.557 549.758 416.917 550.365 434.719 559.688 c 0
 455.062 570.34 471.406 581.182 471.406 626.749 c 0
 471.406 668.983 453.562 678.739 426.406 689.905 c 0
 406.887 697.931 363.377 699.494 340.375 699.749 c 2
 325.406 699.749 l 1
 100 699.749 l 1
 100 -101.657 l 1
 0 -101.657 l 1
 -0 798.343 l 1
 1.40625 798.343 l 1
 1.40625 799.749 l 1
 325.406 799.749 l 1
 325.406 799.749 328.59 799.874 334.062 799.874 c 0
 337.711 799.889 342.374 799.85 347.812 799.749 c 0
 355.888 799.891 363.268 799.989 370.094 799.999 c 0
EndSplineSet
Validated: 524321
EndChar

StartChar: ucircumflex
Encoding: 251 251 138
Width: 785
VWidth: 0
HStem: -24.0028 100.003
VStem: 41.9549 100 641.33 99.998
LayerCount: 2
Fore
SplineSet
237.954 1011 m 1
 237.954 886 l 1
 287.954 886 l 1
 287.954 936 l 1
 487.954 936 l 1
 487.954 885 l 1
 537.954 885 l 1
 537.954 1011 l 1
 487.954 1011 l 1
 287.954 1011 l 1
 237.954 1011 l 1
EndSplineSet
Refer: 82 117 N 1 0 0 1 0 0 3
Validated: 524297
EndChar

StartChar: udieresis
Encoding: 252 252 139
Width: 785
VWidth: 0
HStem: -24.0028 100.003 885 92<258.194 335.723 448.194 525.723>
VStem: 41.9549 100 250.938 92.0312<892.246 969.754> 440.938 92.0312<892.246 969.754> 641.33 99.998
LayerCount: 2
Fore
SplineSet
486.97 977 m 0
 461.562 977 440.938 956.407 440.938 931 c 0
 440.938 905.593 461.562 885 486.97 885 c 0
 512.377 885 532.97 905.593 532.97 931 c 0
 532.97 956.407 512.377 977 486.97 977 c 0
296.97 977 m 0
 271.562 977 250.938 956.407 250.938 931 c 0
 250.938 905.593 271.562 885 296.97 885 c 0
 322.377 885 342.97 905.593 342.97 931 c 0
 342.97 956.407 322.377 977 296.97 977 c 0
EndSplineSet
Refer: 82 117 N 1 0 0 1 0 0 3
Validated: 524297
EndChar

StartChar: cedilla
Encoding: 184 184 140
Width: 260
Flags: W
HStem: 649.469 1.75<23 24.0625>
LayerCount: 2
Fore
SplineSet
122.75 850 m 5
 24.0625 651.188 l 5
 23.875 651.219 l 5
 23 649.469 l 5
 134.844 649.469 l 5
 234.406 850 l 5
 122.75 850 l 5
EndSplineSet
Validated: 524297
EndChar

StartChar: AE
Encoding: 198 198 143
Width: 1196
VWidth: 0
Flags: W
HStem: 0 100<615 1115> 100 100<195.688 484.312> 450 100<615 1015> 700 100<309.312 370.688 615 1115>
VStem: 515 100<550 700>
LayerCount: 2
Fore
SplineSet
240 800 m 1xb8
 440 800 l 1
 515 500 l 1
 515 550 l 1
 515 700 l 1
 515 800 l 1
 615 800 l 1
 1115 800 l 1
 1115 700 l 1
 615 700 l 1
 615 550 l 1
 1015 550 l 1
 1015 450 l 1
 615 450 l 1
 615 100 l 1
 1115 100 l 1
 1115 0 l 1
 640 0 l 1
 615 0 l 1
 540 0 l 1
 515 0 l 1xb8
 515 100 l 1
 165 100 l 1x78
 140 0 l 1
 40 0 l 1
 240 800 l 1xb8
309.312 700 m 1
 195.688 200 l 1
 484.312 200 l 1x78
 370.688 700 l 1
 309.312 700 l 1
EndSplineSet
Validated: 524289
EndChar

StartChar: ae
Encoding: 230 230 144
Width: 828
VWidth: 0
Flags: W
HStem: 0 100<450 750> 100 100<205.688 350> 450 100<450 650> 700 100<319.312 350 450 750>
VStem: 350 100<200 450 550 700>
LayerCount: 2
Fore
SplineSet
250 800 m 1xb8
 350 800 l 1
 450 800 l 1
 750 800 l 1
 750 700 l 1
 450 700 l 1
 450 550 l 1
 650 550 l 1
 650 450 l 1
 450 450 l 1
 450 100 l 1
 750 100 l 1
 750 0 l 1
 450 0 l 1
 405.812 0 l 1
 350 0 l 1xb8
 350 100 l 1
 175 100 l 1x78
 150 0 l 1
 50 0 l 1
 250 800 l 1xb8
319.312 700 m 1
 205.688 200 l 1
 350 200 l 1x78
 350 700 l 1
 319.312 700 l 1
EndSplineSet
Validated: 524289
EndChar

StartChar: Ucircumflex
Encoding: 219 219 148
Width: 785
VWidth: 0
HStem: -24.0028 100.003
VStem: 42.9549 100 642.33 99.998
LayerCount: 2
Fore
SplineSet
233.954 1011 m 1
 233.954 886 l 1
 283.954 886 l 1
 283.954 936 l 1
 483.954 936 l 1
 483.954 885 l 1
 533.954 885 l 1
 533.954 1011 l 1
 483.954 1011 l 1
 283.954 1011 l 1
 233.954 1011 l 1
EndSplineSet
Refer: 51 85 N 1 0 0 1 0 0 3
Validated: 524297
EndChar

StartChar: Udieresis
Encoding: 220 220 149
Width: 785
VWidth: 0
HStem: -24.0028 100.003 885 92<249.194 326.723 439.194 516.723>
VStem: 42.9549 100 241.938 92.0312<892.246 969.754> 431.938 92.0312<892.246 969.754> 642.33 99.998
LayerCount: 2
Fore
SplineSet
477.97 977 m 0
 452.562 977 431.938 956.407 431.938 931 c 0
 431.938 905.593 452.562 885 477.97 885 c 0
 503.377 885 523.97 905.593 523.97 931 c 0
 523.97 956.407 503.377 977 477.97 977 c 0
287.97 977 m 0
 262.562 977 241.938 956.407 241.938 931 c 0
 241.938 905.593 262.562 885 287.97 885 c 0
 313.377 885 333.97 905.593 333.97 931 c 0
 333.97 956.407 313.377 977 287.97 977 c 0
EndSplineSet
Refer: 51 85 N 1 0 0 1 0 0 3
Validated: 524297
EndChar

StartChar: periodcentered
Encoding: 183 183 150
Width: 148
Flags: W
HStem: 326.5 92<35.2553 112.785>
VStem: 28 92.0312<333.746 411.254>
LayerCount: 2
Fore
SplineSet
74.0312 418.5 m 0
 48.623 418.5 28 397.907 28 372.5 c 0
 28 347.093 48.623 326.5 74.0312 326.5 c 0
 99.4385 326.5 120.031 347.093 120.031 372.5 c 0
 120.031 397.907 99.4385 418.5 74.0312 418.5 c 0
EndSplineSet
Validated: 524297
EndChar

StartChar: uni00AD
Encoding: 173 173 151
Width: 479
Flags: W
HStem: 307.842 102.158<39 438.699>
LayerCount: 2
Fore
SplineSet
39 307.842 m 1
 39 410 l 1
 438.699 410 l 1
 438.699 307.842 l 1
 39 307.842 l 1
EndSplineSet
Validated: 524289
EndChar
